<?xml version="1.0" encoding="UTF-8" standalone="no"?>
<!-- Created with Inkscape (http://www.inkscape.org/) -->

<svg
   width="210mm"
   height="297mm"
   viewBox="0 0 210 297"
   version="1.1"
   id="svg1"
   xml:space="preserve"
   xmlns="http://www.w3.org/2000/svg"
   xmlns:svg="http://www.w3.org/2000/svg"><defs
     id="defs1" /><g
     id="Walls"><path
       style="fill:#000000;stroke-width:0.628971"
       d="M 3.6385802,162.41041 V 56.296613 H 39.880652 76.122723 v 28.666707 28.6667 h 29.244117 29.24411 V 84.96332 56.296613 h 36.24207 36.24206 V 162.41041 268.52421 H 105.36684 3.6385802 Z M 206.21113,180.83229 V 94.45623 h -35.28445 -35.28446 v 58.1793 58.17932 H 105.36684 75.091445 V 151.88362 92.9524 H 39.806989 4.5225332 v 87.12798 87.12798 H 105.36684 206.21113 Z M 134.61095,162.22243 V 114.75789 H 105.36684 76.122723 v 47.46454 47.46455 h 29.244117 29.24411 z M 206.21113,75.37642 V 57.424484 H 170.92668 135.64222 V 75.37642 93.32836 h 35.28446 35.28445 z M 75.091445,74.53052 V 57.424484 H 39.806989 4.5225332 V 74.53052 91.63655 H 39.806989 75.091445 Z"
       id="W19_3" /></g><g
     id="Clickable_Rooms"><path
       style="fill:#000000;fill-opacity:0;stroke:#ffffff;stroke-width:0"
       d="M 3.3122676,92.375462 4.4163569,267.92565 H 207.20074 l -1.10409,-174.446097 -71.39777,0.36803 V 210.14498 L 75.078065,209.77695 V 92.375462 Z"
       id="Terrace" /></g><g
     id="Navigation_Nodes" /></svg>
