<?xml version="1.0" encoding="UTF-8" standalone="no"?>
<!-- Created with Inkscape (http://www.inkscape.org/) -->

<svg
   width="210mm"
   height="297mm"
   viewBox="0 0 210 297"
   version="1.1"
   id="svg1"
   xml:space="preserve"
   sodipodi:docname="W19_2.svg"
   inkscape:version="1.4.2 (f4327f4, 2025-05-13)"
   xmlns:inkscape="http://www.inkscape.org/namespaces/inkscape"
   xmlns:sodipodi="http://sodipodi.sourceforge.net/DTD/sodipodi-0.dtd"
   xmlns="http://www.w3.org/2000/svg"
   xmlns:svg="http://www.w3.org/2000/svg"><sodipodi:namedview
     id="namedview1"
     pagecolor="#ffffff"
     bordercolor="#cccccc"
     borderopacity="1"
     inkscape:showpageshadow="0"
     inkscape:pageopacity="1"
     inkscape:pagecheckerboard="0"
     inkscape:deskcolor="#d1d1d1"
     inkscape:document-units="mm"
     inkscape:zoom="0.71891835"
     inkscape:cx="397.12437"
     inkscape:cy="561.25984"
     inkscape:window-width="1920"
     inkscape:window-height="1009"
     inkscape:window-x="-8"
     inkscape:window-y="-8"
     inkscape:window-maximized="1"
     inkscape:current-layer="Clickable_Rooms" /><defs
     id="defs1"><linearGradient
       id="linearGradient9"><stop
         style="stop-color:#000000;stop-opacity:1;"
         offset="0"
         id="stop9" /><stop
         style="stop-color:#ffffff;stop-opacity:0;"
         offset="1"
         id="stop10" /></linearGradient><rect
       x="131.87541"
       y="267.28636"
       width="80.610173"
       height="50.911688"
       id="rect5" /><rect
       x="150.61374"
       y="277.89297"
       width="39.951533"
       height="38.890873"
       id="rect3" /></defs><g
     inkscape:groupmode="layer"
     id="layer3"
     inkscape:label="Layer 1"><path
       style="fill:#000000"
       d="M 23.28979,162.29078 V 77.183124 h 84.93126 84.93124 v 85.107656 85.10763 H 108.22105 23.28979 Z m 17.286111,68.35069 v -15.52222 h -1.852083 -1.852083 v -0.61736 -0.61736 h 8.918814 8.918814 l -0.05527,0.57326 -0.05527,0.57326 -6.394097,0.0463 -6.394097,0.0463 v 15.52002 15.52002 h 9.348611 9.34861 v -15.513 -15.51301 l -0.926041,-0.0533 c -0.903057,-0.052 -0.927414,-0.0675 -0.981315,-0.62658 l -0.05527,-0.57326 h 1.598676 1.598676 v 16.13958 16.13958 h 31.485412 31.485422 v -15.52222 -15.52222 h -4.93889 -4.93889 v -0.61736 -0.61736 h 6.79097 6.79097 v 0.61736 0.61736 h -1.23472 -1.23472 v 15.52222 15.52222 h 7.76111 7.76111 v -15.52222 -15.52222 h -4.67431 -4.6743 v -0.61736 -0.61736 h 6.61458 6.61458 v 0.61736 0.61736 h -1.32291 -1.32292 v 15.52222 15.52222 h 8.29028 8.29028 v -15.52222 -15.52222 h -5.46806 -5.46805 v -0.61736 -0.61736 h 7.5077 7.5077 l -0.0553,0.57326 -0.0553,0.57326 -1.36702,0.0515 -1.36701,0.0515 v 15.5148 15.5148 h 7.67291 7.67292 V 230.64463 215.1256 l -4.18924,-0.0473 -4.18923,-0.0473 -0.0553,-0.57326 -0.0553,-0.57326 h 6.25296 6.25296 l 0.0778,0.53017 c 0.0428,0.29159 0.0386,0.5694 -0.009,0.61736 -0.048,0.048 -0.66928,0.0872 -1.38071,0.0872 h -1.29352 v 15.52222 15.52222 h 7.32014 7.32014 v -15.52222 -15.52222 h -4.40972 -4.40973 v -0.61428 -0.61428 l 4.36563,-0.0472 4.36562,-0.0472 0.0471,-4.45382 0.0471,-4.45382 h -8.02873 -8.02872 v -4.23333 -4.23333 h 0.70556 0.70555 v 3.61597 3.61597 h 7.32014 7.32014 v -5.37986 -5.37986 h -7.67292 -7.67291 v -0.61549 -0.61549 l 7.62881,-0.046 7.62882,-0.046 0.0467,-5.33576 0.0467,-5.33577 h -7.32272 -7.32273 v 3.175 3.175 h -0.70555 -0.70556 v -6.52639 -6.52638 h 0.70556 0.70555 v 2.73402 2.73403 h 7.32333 7.32333 l -0.0473,-4.18924 -0.0473,-4.18923 -7.62882,-0.046 -7.62881,-0.046 v -0.61549 -0.61549 h 7.67291 7.67292 v -5.55625 -5.55625 h -7.32014 -7.32014 v 3.96875 3.96875 h -0.70555 -0.70556 v -8.46666 -8.46667 h 0.70556 0.70555 v 3.88055 3.88056 h 7.32014 7.32014 v -5.02708 -5.02709 h -7.67292 -7.67291 v -0.61548 -0.61549 l 7.62881,-0.046 7.62882,-0.046 0.047,-4.71841 0.047,-4.7184 h -7.32302 -7.32302 v 3.2632 3.26319 h -0.70555 -0.70556 v -7.40833 -7.40834 h 0.70556 0.70555 v 3.52974 3.52973 l 7.27604,-0.0461 7.27604,-0.0461 v -3.70416 -3.70417 l -5.60034,-0.0466 -5.60035,-0.0466 v 1.41913 c 0,0.99418 0.068,1.4452 0.22696,1.50621 0.35683,0.13693 6.24272,0.005 5.94665,-0.13355 -0.14552,-0.068 -0.60193,-0.20994 -1.01424,-0.31548 -0.56192,-0.14384 -0.74965,-0.27853 -0.74965,-0.53787 0,-0.44798 0.52234,-0.45039 2.35908,-0.0109 1.46689,0.35102 1.59269,0.447 1.87264,1.42877 0.24544,0.86076 0.21853,1.21663 -0.15401,2.03681 -0.32355,0.7123 -0.32809,0.71475 -2.04383,1.10095 -0.94576,0.21289 -1.79028,0.34336 -1.87672,0.28994 -0.0864,-0.0534 -0.15716,-0.24814 -0.15716,-0.4327 0,-0.2471 0.19765,-0.38617 0.74965,-0.52747 1.47813,-0.37837 1.2337,-0.43974 -1.94027,-0.48714 l -3.2191,-0.0481 v -0.43156 c 0,-0.43111 0.002,-0.43162 2.11728,-0.48109 2.7801,-0.065 2.81397,-0.38546 0.0478,-0.45235 -1.59656,-0.0386 -2.10263,-0.10915 -2.21429,-0.30868 -0.0796,-0.14225 -0.37892,-0.25863 -0.66514,-0.25863 h -0.5204 v -4.05695 -4.05694 h 0.61736 0.61736 v 1.76389 1.76388 h 5.64444 5.64445 v -1.41111 c 0,-1.28348 -0.15046,-1.70477 -0.44097,-1.23472 -0.16845,0.27254 -0.81844,0.20873 -1.17674,-0.11553 -0.89782,-0.81252 0.18883,-2.04788 1.28523,-1.46111 0.33394,0.17873 0.34747,0.13656 0.29708,-0.92604 l -0.0528,-1.11329 -2.90615,-0.0487 c -1.74696,-0.0293 -2.8375,0.0152 -2.73403,0.11147 0.0947,0.0881 0.79442,0.34193 1.555,0.56413 1.65712,0.48412 1.93055,0.79926 1.91787,2.2104 -0.0127,1.41511 -0.22642,1.63125 -2.16227,2.18692 -1.80254,0.51741 -2.15632,0.50841 -2.07384,-0.0528 0.0427,-0.29021 0.32003,-0.43595 1.37634,-0.72321 0.7276,-0.19787 1.18903,-0.38626 1.02538,-0.41864 -0.16365,-0.0324 -0.87802,0.10987 -1.5875,0.31611 -0.70948,0.20623 -1.41903,0.41175 -1.57678,0.4567 -0.18162,0.0518 -0.32112,-0.0495 -0.38036,-0.27599 -0.0858,-0.32801 -0.23409,-0.35772 -1.78575,-0.35772 -1.68743,0 -1.69221,-0.001 -1.69221,-0.44097 v -0.44098 h 1.76389 c 1.43091,0 1.76389,-0.0487 1.76389,-0.25819 0,-0.20556 -0.35059,-0.26849 -1.7198,-0.30868 -1.63147,-0.0479 -1.72268,-0.0709 -1.77615,-0.44736 -0.0553,-0.38903 -0.0213,-0.39688 1.71979,-0.39688 1.65856,0 1.77616,-0.0234 1.77616,-0.35277 0,-0.43889 -0.0231,-0.44017 1.63831,0.0904 1.79561,0.57345 2.36007,0.54291 0.68092,-0.0369 -1.26362,-0.43628 -1.29413,-0.4607 -1.19503,-0.95621 l 0.1017,-0.5085 h -4.14073 -4.14073 v 2.55764 2.55764 h -0.70555 -0.70556 v -6.08541 -6.08542 h -4.23333 -4.23334 v -0.61737 -0.61736 h 12.25992 12.25992 l -0.045,-16.801053 -0.045,-16.801036 h -28.31041 -28.31042 l -0.045,17.418396 -0.045,17.418423 h -10.84706 -10.84705 v -0.61737 -0.61736 h 10.23055 10.23056 V 95.262977 78.417846 H 106.54535 79.205066 v 20.461111 20.461123 h 36.071534 36.07153 v 8.0257 8.02569 h 8.37847 8.37847 v 3.96875 3.96875 h -0.61347 -0.61347 l -0.048,-3.30729 -0.048,-3.30729 -0.44097,-0.0636 c -0.24253,-0.035 -3.71519,-0.006 -7.71701,0.0648 l -7.27604,0.12846 v 4.74177 4.74177 h 8.02569 8.02569 v 0.64364 0.64364 l -8.02569,-0.12823 -8.02569,-0.12822 v 5.12903 5.12903 h 7.76111 7.76111 v -3.88056 -3.88055 h 0.61736 0.61736 v 8.46667 8.46666 h -0.61399 -0.61398 l -0.0475,-3.92465 -0.0475,-3.92465 -7.71701,-0.0459 -7.71701,-0.046 v 5.55635 5.55634 l 8.15798,0.0459 8.15799,0.0459 0.0553,0.57326 0.0553,0.57326 h -8.21326 -8.21325 v 4.23519 4.23519 l 7.71701,-0.0459 7.71701,-0.046 0.0487,-2.68993 0.0487,-2.68993 h 0.61276 0.61277 v 6.52638 6.52639 h -0.61329 -0.61329 l -0.0482,-3.1309 -0.0482,-3.1309 -7.71701,-0.0459 -7.71701,-0.046 v 5.38171 5.38172 h 8.20208 8.20208 v 0.61736 0.61736 h -8.20208 -8.20208 v 5.38171 5.38172 l 7.71701,-0.0459 7.71701,-0.046 0.0478,-3.57188 0.0478,-3.57187 h 0.61371 0.61371 v 4.20422 4.20421 l -18.12396,0.11722 c -9.96817,0.0645 -21.83474,0.11725 -26.37014,0.11731 l -8.24618,9e-5 v -4.40972 -4.40972 h -7.76111 -7.761122 v 4.32152 4.32153 H 74.795344 49.748123 v -4.23333 -4.23333 h 0.617361 0.617361 v 3.61597 3.61597 h 6.526389 6.526388 v -5.29167 -5.29166 h -6.889814 -6.889814 l 0.05474,-0.66146 0.05475,-0.66146 6.835069,-0.0462 6.835069,-0.0462 v -2.27741 -2.27742 l -0.515598,0.5156 c -0.953965,0.95396 -2.740879,0.56461 -3.098006,-0.67503 -0.164271,-0.57021 0.409624,-0.5272 0.882747,0.0661 0.648131,0.81283 1.92367,0.49782 1.813733,-0.44792 -0.04019,-0.34577 -0.202328,-0.50424 -0.670376,-0.65521 -0.799906,-0.25801 -0.89813,-0.68839 -0.189457,-0.83013 0.38318,-0.0766 0.5652,-0.23554 0.648089,-0.5658 0.06339,-0.25258 0.03178,-0.54272 -0.07026,-0.64476 -0.323709,-0.32371 -1.14989,-0.21335 -1.417246,0.1893 -0.288021,0.43379 -0.911402,0.50371 -0.911402,0.10223 0,-0.14993 0.19483,-0.46743 0.432955,-0.70556 0.514718,-0.51471 1.724832,-0.59626 2.35002,-0.15836 0.460844,0.32278 0.542781,1.38221 0.141393,1.82819 -0.218961,0.24328 -0.196671,0.34101 0.176389,0.77338 l 0.427021,0.4949 v -2.74386 -2.74387 h -6.526388 -6.526389 v 3.175 3.175 h -0.617361 -0.617361 v -6.57916 -6.57917 l 0.617361,0.0721 0.617361,0.0721 v 2.71473 2.71473 h 6.526389 6.526388 v -4.14514 -4.14514 h -6.879166 -6.879166 v -0.61736 -0.61736 h 6.879166 6.879166 v -5.64444 -5.64445 h -6.526388 -6.526389 v 3.96875 3.96875 h -0.617361 -0.617361 v -8.47784 -8.47784 l 0.573264,0.0553 0.573264,0.0553 0.04754,3.8386 0.04754,3.83861 6.56704,-0.0462 6.56704,-0.0462 0.04676,-5.15938 0.04676,-5.15937 h -6.970025 -6.970025 v -0.61737 -0.61736 h 6.96736 6.967361 v -4.58611 -4.58611 h -6.614583 -6.614583 v 3.2632 3.26319 h -0.617361 -0.617361 v -3.87858 -3.87857 l 7.187847,-0.0461 7.187847,-0.0461 v -7.49652 -7.49653 l -4.101042,-0.0473 -4.101041,-0.0474 v -0.52591 -0.52592 h 11.024305 11.024305 v -6.70279 -6.70278 h -3.263195 -3.263194 v -0.61736 -0.61736 h 3.263194 3.263195 v -4.14514 -4.145143 h -3.263195 -3.263194 v -0.61736 -0.61736 h 3.263194 3.263195 V 91.55882 87.942846 h -3.27437 -3.27437 l 0.05527,-0.573264 0.05527,-0.573264 3.219097,-0.04808 3.219098,-0.04808 v -4.14116 -4.14116 H 67.298816 56.627289 v 4.145139 4.145139 h 4.586111 4.586111 v 0.617361 0.617361 H 61.2134 56.627289 v 3.615972 3.615967 h 4.586111 4.586111 v 0.61736 0.61736 H 61.2134 56.627289 v 4.145143 4.14514 h 4.586111 4.586111 v 0.61736 0.61736 H 60.507844 55.216178 V 92.17618 78.417846 H 39.870346 24.52451 v 13.140974 13.14097 h 8.643058 8.643055 v 9.26043 9.26042 h -0.609941 -0.609941 l -0.05152,-1.36702 -0.05152,-1.36701 h -7.9375 -7.937501 l -0.0511,1.55387 -0.0511,1.55388 0.51503,-0.38078 c 0.42037,-0.3108 0.58301,-0.3444 0.88492,-0.18282 0.84097,0.45007 0.84097,1.34079 0,1.79086 -0.30148,0.16135 -0.46384,0.1285 -0.8779,-0.17762 l -0.50801,-0.37559 v 1.24 1.24 h 5.820831 5.820837 v -2.46944 -2.46944 h 0.617361 0.617361 v 2.46327 2.46327 l 1.807986,0.0503 1.807986,0.0503 0.0548,0.56697 0.0548,0.56698 -1.818693,0.0504 -1.818692,0.0504 -0.04881,2.60174 -0.04881,2.60173 h -0.612646 -0.612646 v -2.64583 -2.64583 H 30.345371 24.52454 v 3.70416 3.70417 h 8.025693 8.025694 v -1.94028 -1.94028 h 0.619739 0.619739 l -0.04648,5.86493 -0.04648,5.86494 -0.569332,0.055 -0.569332,0.055 -0.04803,-3.31817 -0.04803,-3.31817 -7.981597,-0.0459 -7.981594,-0.0459 v 4.6761 4.6761 h 8.290274 8.290278 v 0.61736 0.61737 H 32.814804 24.52453 v 5.20347 5.20347 h 8.025691 8.025694 v -3.89173 -3.89173 l 0.573264,0.0553 0.573264,0.0553 v 8.37848 8.37847 l -0.573264,0.0553 -0.573264,0.0553 v -3.97992 -3.97993 H 32.550221 24.52453 v 5.55625 5.55631 l 6.041311,6.6e-4 c 6.736558,7.4e-4 6.826406,0.15386 10.441708,-6.6e-4 -0.03207,1.12904 0.02551,0.32072 0.0093,1.32283 l -8.24618,-0.0707 -8.246184,-0.0707 v 4.25992 4.25992 h 8.290281 8.290278 v 0.61736 0.61736 H 32.814801 24.52452 v 5.37986 5.37987 h 8.290281 8.290278 v 0.61736 0.61736 H 32.814801 24.52452 v 5.37986 5.37986 h 8.025698 8.025694 v -3.61597 -3.61597 h 0.617361 0.617361 v 4.23333 4.23333 H 33.16455 24.51847 l 0.0471,4.45382 0.0471,4.45382 4.34605,0.0471 4.346048,0.0471 0.07737,0.52713 c 0.04255,0.28993 0.03813,0.56637 -0.0098,0.61433 -0.04795,0.048 -2.058337,0.0872 -4.467518,0.0872 H 24.5245 v 15.52222 15.52222 h 8.025694 8.025694 z m 62.088889,-8.90764 v -17.3743 h 0.61647 0.61647 l 0.045,16.80104 0.045,16.80104 h 3.70417 3.70417 l 0.045,-16.80104 0.045,-16.80104 h 0.61647 0.61647 v 17.3743 17.37431 h -5.02708 -5.02708 z m 68.333,12.35993 c -0.53159,-0.23141 -0.77605,-0.57335 -0.77605,-1.08547 0,-0.40012 0.60503,-0.2886 0.79602,0.14672 0.13867,0.31609 0.31725,0.39688 0.87729,0.39688 0.58724,0 0.74023,-0.0773 0.92787,-0.46879 0.4547,-0.9487 -0.43728,-1.88058 -1.33844,-1.39829 -0.19668,0.10526 -0.53263,0.19138 -0.74655,0.19138 -0.36573,0 -0.38231,-0.0553 -0.27771,-0.92604 0.0612,-0.50932 0.11192,-1.10463 0.11276,-1.32292 0.001,-0.37837 0.0673,-0.39687 1.41265,-0.39687 1.11612,0 1.41111,0.0536 1.41111,0.25617 0,0.19103 -0.28029,0.26951 -1.10243,0.30868 l -1.10243,0.0525 -0.0525,0.62282 -0.0524,0.62282 0.73179,-0.0698 c 0.9176,-0.0875 1.50718,0.21942 1.74789,0.90993 0.57712,1.65553 -0.89144,2.8905 -2.56888,2.16026 z m -43.10938,-0.22266 c 0,-0.171 0.56885,-0.88359 1.26412,-1.58353 1.03045,-1.03738 1.26412,-1.37521 1.26412,-1.82765 0,-0.93581 -1.0553,-1.22794 -1.57433,-0.43581 -0.38777,0.59182 -0.93517,0.59885 -0.82271,0.0105 0.13019,-0.68107 0.63224,-1.01077 1.56048,-1.02481 0.69857,-0.0106 0.90285,0.0658 1.24753,0.46656 0.73797,0.85793 0.48646,1.66284 -0.94632,3.02859 l -1.00575,0.95869 h 1.28325 c 1.12705,0 1.27606,0.0376 1.22418,0.30868 -0.0506,0.26453 -0.30481,0.31591 -1.77683,0.35917 -1.54216,0.0453 -1.71774,0.0187 -1.71774,-0.26044 z m 5.93842,0.18056 c -0.0647,-0.0647 -0.11759,-0.98599 -0.11759,-2.04735 0,-1.76867 -0.0258,-1.91914 -0.30868,-1.80267 -0.77651,0.31967 -0.92604,0.30857 -0.92604,-0.0688 0,-0.20535 0.10835,-0.37335 0.24079,-0.37335 0.13244,0 0.44262,-0.15875 0.68928,-0.35278 0.24667,-0.19403 0.61456,-0.35278 0.81754,-0.35278 0.35751,0 0.36905,0.08 0.36905,2.55764 0,2.36254 -0.0247,2.55764 -0.32338,2.55764 -0.17786,0 -0.37629,-0.0529 -0.44097,-0.11759 z m 3.05741,0.0161 c 0,-0.0558 0.43656,-1.01993 0.97014,-2.14246 0.53357,-1.12253 0.97014,-2.10872 0.97014,-2.19155 0,-0.0828 -0.59532,-0.15059 -1.32292,-0.15059 -1.05833,0 -1.32292,-0.0529 -1.32292,-0.26459 0,-0.21754 0.31358,-0.26458 1.76389,-0.26458 1.62408,0 1.76389,0.0269 1.76389,0.33993 0,0.18696 -0.48898,1.3379 -1.08662,2.55764 -0.80449,1.64189 -1.17087,2.21771 -1.41111,2.21771 -0.17847,0 -0.32449,-0.0457 -0.32449,-0.10151 z m 7.58472,-0.23903 c 0,-0.20761 0.52134,-0.85442 1.26412,-1.56835 1.05664,-1.01562 1.26412,-1.30863 1.26412,-1.78526 0,-0.94944 -1.05054,-1.25038 -1.57432,-0.45099 -0.3797,0.5795 -1.02901,0.61282 -0.85918,0.0441 0.2194,-0.73472 0.68381,-1.04455 1.58614,-1.05819 0.71039,-0.0107 0.91229,0.0641 1.25833,0.46639 0.73797,0.85793 0.48647,1.66284 -0.94632,3.02859 l -1.00574,0.95869 h 1.28325 c 1.12705,0 1.27605,0.0376 1.22417,0.30868 -0.0506,0.26453 -0.3048,0.31591 -1.77682,0.35917 -1.61783,0.0476 -1.71775,0.0299 -1.71775,-0.30283 z m 5.94452,0.22904 c -0.068,-0.068 -0.12369,-0.99208 -0.12369,-2.05344 0,-1.76867 -0.0258,-1.91914 -0.30868,-1.80267 -0.7765,0.31967 -0.92604,0.30857 -0.92604,-0.0688 0,-0.20535 0.10836,-0.37335 0.2408,-0.37335 0.13243,0 0.44261,-0.15875 0.68928,-0.35278 0.24666,-0.19403 0.61673,-0.35278 0.82238,-0.35278 0.36572,0 0.37282,0.0549 0.32495,2.51134 -0.041,2.10157 -0.0935,2.51989 -0.32212,2.56374 -0.15025,0.0288 -0.32885,-0.003 -0.39688,-0.0713 z m 3.63486,-0.0576 c -0.96432,-0.41094 -1.40524,-2.36547 -0.8573,-3.80023 0.35301,-0.92435 0.75034,-1.19072 1.75553,-1.17691 0.55364,0.008 0.81609,0.11804 1.11996,0.47124 0.21828,0.25371 0.39687,0.53625 0.39687,0.62785 0,0.31338 -0.69286,0.16708 -0.88194,-0.18623 -0.2225,-0.41573 -1.0853,-0.48076 -1.39692,-0.10528 -0.11297,0.13611 -0.27746,0.49873 -0.36553,0.80582 -0.15987,0.55744 -0.15922,0.55814 0.40429,0.43873 0.63175,-0.13386 0.59365,-0.13045 1.13767,-0.10182 1.00284,0.0528 1.51357,1.76713 0.79195,2.65829 -0.35068,0.43308 -1.48644,0.63196 -2.10458,0.36854 z m 1.52691,-0.87768 c 0.53295,-0.99581 -0.12013,-1.82038 -1.16716,-1.47365 -1.00509,0.33283 -0.60581,1.81483 0.48895,1.81483 0.30948,0 0.5642,-0.12814 0.67821,-0.34118 z m 6.17982,0.83677 c 0,-0.12226 0.60073,-0.7945 1.33496,-1.49386 1.1892,-1.13273 1.32883,-1.33348 1.27882,-1.83865 -0.0309,-0.31189 -0.18276,-0.64631 -0.33752,-0.74314 -0.40059,-0.25064 -1.17423,-0.0105 -1.30625,0.40547 -0.13204,0.41603 -0.79362,0.47954 -0.79362,0.0762 0,-0.53793 0.36507,-0.94536 1.00556,-1.1222 1.13396,-0.3131 2.05315,0.11459 2.25882,1.05102 0.14491,0.65975 -0.20425,1.28883 -1.31867,2.37583 l -0.90419,0.88195 1.15761,0.0882 c 1.819,0.13858 1.47724,0.43439 -0.56753,0.49124 -1.36328,0.0379 -1.80799,-0.004 -1.80799,-0.17204 z m 5.99722,-1.74918 c 0,-1.79769 -0.0254,-1.94846 -0.30868,-1.8294 -1.29958,0.54626 -1.52567,-0.002 -0.28646,-0.69429 1.32456,-0.74031 1.3007,-0.77725 1.3007,2.01339 0,2.35186 -0.0168,2.46945 -0.35278,2.46945 -0.3316,0 -0.35278,-0.11759 -0.35278,-1.95915 z m 10.40695,1.74301 c 0,-0.11887 0.60073,-0.78833 1.33495,-1.48769 1.18921,-1.13273 1.32883,-1.33348 1.27882,-1.83865 -0.0309,-0.31189 -0.18276,-0.64631 -0.33752,-0.74314 -0.40059,-0.25064 -1.17422,-0.0105 -1.30625,0.40547 -0.13973,0.44025 -0.79587,0.47663 -0.78801,0.0437 0.0196,-1.08099 1.91299,-1.60958 2.85072,-0.79587 0.40912,0.35502 0.56184,1.17556 0.31036,1.66747 -0.11451,0.22397 -0.65309,0.86363 -1.19685,1.42146 l -0.98865,1.01423 h 1.27329 c 1.01423,0 1.2733,0.0538 1.2733,0.26458 0,0.21839 -0.32338,0.26459 -1.85208,0.26459 -1.34419,0 -1.85208,-0.0593 -1.85208,-0.21614 z m 5.82083,-1.73074 c 0,-1.80836 -0.0255,-1.96091 -0.30868,-1.84434 -0.75279,0.30991 -0.92604,0.30524 -0.92604,-0.025 0,-0.3509 1.248,-1.12407 1.81296,-1.12319 0.28777,4.5e-4 0.30961,0.20067 0.26458,2.42584 -0.0478,2.36384 -0.0591,2.42677 -0.44595,2.48171 -0.39126,0.0556 -0.39687,0.0285 -0.39687,-1.91505 z m 4.93889,1.50591 c 0,-0.42838 -0.0353,-0.44098 -1.23472,-0.44098 -1.16582,0 -1.23417,-0.0221 -1.22475,-0.39687 0.005,-0.21828 0.51174,-1.11125 1.125,-1.98438 0.85825,-1.22192 1.22153,-1.60035 1.57752,-1.64331 l 0.4625,-0.0558 v 1.66684 c 0,1.51849 0.0314,1.67504 0.35278,1.75909 0.19403,0.0507 0.35278,0.18649 0.35278,0.30167 0,0.11517 -0.15875,0.25093 -0.35278,0.30167 -0.22829,0.0597 -0.35278,0.24059 -0.35278,0.51265 0,0.30281 -0.0987,0.4204 -0.35277,0.4204 -0.25871,0 -0.35278,-0.11759 -0.35278,-0.44097 z m 0,-2.32834 c 0,-0.64999 -0.0656,-1.1064 -0.14577,-1.01423 -0.33556,0.38574 -1.44173,1.98729 -1.44173,2.08738 0,0.0598 0.35718,0.10866 0.79375,0.10866 h 0.79375 z M 53.2759,231.92234 c -0.694033,-0.34934 -0.972628,-1.1045 -0.407475,-1.1045 0.177439,0 0.421757,0.15875 0.542929,0.35278 0.306823,0.4913 1.17421,0.46905 1.530239,-0.0393 0.341268,-0.48723 0.385937,-1.50636 0.0541,-1.23428 -0.407685,0.33426 -1.494934,0.33131 -1.951305,-0.005 -0.417489,-0.30793 -0.621184,-1.17107 -0.438494,-1.85809 0.318144,-1.19639 2.215649,-1.4371 2.999522,-0.38049 0.422861,0.56998 0.603215,2.20712 0.333257,3.0251 -0.414604,1.25626 -1.56795,1.79509 -2.662772,1.24402 z m 1.599096,-2.52182 c 0.724172,-0.38756 0.184854,-1.75768 -0.691875,-1.75768 -0.637607,0 -0.907221,0.29619 -0.907221,0.99665 0,0.82551 0.782647,1.19798 1.599096,0.76103 z m -10.947706,2.44422 c 0,-0.1143 0.595312,-0.81956 1.322916,-1.56724 1.331995,-1.36875 1.594066,-1.94018 1.11125,-2.42299 -0.385955,-0.38596 -1.187042,-0.25549 -1.407927,0.2293 -0.22044,0.48381 -0.84985,0.60586 -0.84985,0.16479 0,-0.81141 0.995856,-1.43846 1.973857,-1.24286 0.869508,0.1739 1.201143,0.57829 1.201143,1.46467 0,0.70614 -0.09141,0.8669 -1.058334,1.8612 -0.582083,0.59856 -1.058333,1.11158 -1.058333,1.14004 0,0.0285 0.515937,0.0517 1.146528,0.0517 0.901543,0 1.146527,0.0565 1.146527,0.26459 0,0.21754 -0.31358,0.26458 -1.763888,0.26458 -1.236189,0 -1.763889,-0.0622 -1.763889,-0.20782 z m 5.997222,-1.75133 c 0,-1.79769 -0.02544,-1.94845 -0.308681,-1.8294 -0.787818,0.33115 -1.10243,0.31076 -1.10243,-0.0714 0,-0.20534 0.103641,-0.37334 0.230314,-0.37334 0.126673,0 0.499282,-0.19844 0.828019,-0.44097 1.035433,-0.76392 1.058333,-0.71812 1.058333,2.11666 0,2.44005 -0.01622,2.55764 -0.352777,2.55764 -0.331604,0 -0.352778,-0.11759 -0.352778,-1.95915 z m -22.870732,1.33146 c -0.0719,-0.18746 0.32262,-0.68402 1.24026,-1.56091 1.082151,-1.0341 1.345751,-1.38795 1.345751,-1.80648 0,-0.99035 -0.934871,-1.29246 -1.555991,-0.50284 -0.40574,0.51582 -0.91346,0.58193 -0.91346,0.11895 0,-0.55267 0.76541,-1.10959 1.53966,-1.12027 0.882801,-0.0122 1.426111,0.27462 1.653571,0.87287 0.28286,0.74397 0.0347,1.28707 -1.12659,2.46561 l -1.086311,1.10243 h 1.156141 c 1.23374,0 1.42192,0.0678 1.27209,0.45822 -0.1457,0.37969 -3.378541,0.3544 -3.525121,-0.0276 z m 4.233811,0.001 c -0.078,-0.20316 0.28222,-0.65411 1.237858,-1.54983 1.108851,-1.03932 1.347799,-1.35868 1.347743,-1.80129 -1.28e-4,-1.00667 -0.929145,-1.31733 -1.556055,-0.52035 -0.379214,0.4821 -0.913456,0.59101 -0.913456,0.18623 0,-0.14011 0.18018,-0.46423 0.400411,-0.72025 0.330748,-0.38452 0.54983,-0.46551 1.259221,-0.46551 1.109515,0 1.595543,0.43874 1.595543,1.4403 0,0.62911 -0.120368,0.82502 -1.137423,1.85119 l -1.137424,1.14763 h 1.286658 c 1.1303,0 1.279478,0.0375 1.227583,0.30868 -0.05063,0.26457 -0.304966,0.3159 -1.779893,0.3592 -1.455656,0.0427 -1.737766,0.006 -1.830766,-0.236 z m 4.970455,-0.14759 c -0.516803,-0.5168 -0.697087,-1.39702 -0.57098,-2.78775 0.147539,-1.62709 1.079924,-2.35225 2.344862,-1.82373 1.227702,0.51297 1.450943,3.65024 0.329878,4.63587 -0.614661,0.5404 -1.549809,0.52956 -2.10376,-0.0244 z m 1.750214,-0.67632 c 0.406605,-0.58051 0.375181,-2.61966 -0.04843,-3.1428 -0.245327,-0.30297 -0.431997,-0.37156 -0.776124,-0.28519 -1.20616,0.30273 -1.092419,3.82002 0.123531,3.82002 0.240714,0 0.54603,-0.17074 0.701025,-0.39203 z m 54.430208,-0.85959 c -1.13822,-0.24364 -1.56846,-1.28052 -0.88949,-2.1437 0.32082,-0.40785 0.32806,-0.48722 0.0883,-0.96786 -0.73068,-1.46468 1.32338,-2.66575 2.59338,-1.51642 0.39447,0.35699 0.4166,1.24744 0.0413,1.66212 -0.25573,0.28258 -0.24839,0.33876 0.0882,0.67535 0.46762,0.46762 0.48795,1.43783 0.0387,1.84444 -0.46567,0.42143 -1.24596,0.59898 -1.96034,0.44607 z m 1.30608,-0.78945 c 0.5648,-0.56481 0.0853,-1.48671 -0.77321,-1.48671 -0.59049,0 -0.88989,0.29672 -0.88989,0.88194 0,0.25224 0.0952,0.55387 0.21167,0.67028 0.29969,0.29969 1.1234,0.26251 1.45143,-0.0655 z m -0.0341,-2.65396 c 0.185,-0.40604 0.16225,-0.50065 -0.18877,-0.78488 -0.49589,-0.40155 -1.1494,-0.2148 -1.23373,0.35256 -0.0947,0.63716 0.0988,0.89401 0.67365,0.89401 0.40966,0 0.58881,-0.11045 0.74885,-0.46169 z m -10.977647,3.21228 c 0,-0.13641 0.55794,-0.78667 1.23987,-1.44502 0.68193,-0.65835 1.284,-1.37278 1.33792,-1.58763 0.26108,-1.04022 -1.03367,-1.58883 -1.62387,-0.68807 -0.37017,0.56495 -0.77753,0.57166 -0.77753,0.0128 0,-1.29966 2.5389,-1.57472 3.01348,-0.32648 0.32875,0.86469 0.0512,1.53884 -1.10551,2.68479 l -1.07845,1.06847 h 1.26093 c 1.00324,0 1.26094,0.0541 1.26094,0.26458 0,0.21755 -0.31358,0.26459 -1.76389,0.26459 -1.39797,0 -1.76389,-0.0515 -1.76389,-0.24803 z m 5.93843,0.13043 c -0.0647,-0.0647 -0.1176,-0.94629 -0.1176,-1.95915 0,-1.68468 -0.0263,-1.83073 -0.30868,-1.71447 -0.76548,0.31513 -0.92604,0.30692 -0.92604,-0.0474 0,-0.22388 0.19043,-0.43083 0.52332,-0.56871 0.28783,-0.11922 0.61505,-0.32729 0.72715,-0.46238 0.11211,-0.13508 0.352867,-0.2456 0.535017,-0.2456 0.30875,0 0.33118,0.17319 0.33118,2.55764 0,2.36254 -0.0247,2.55764 -0.32338,2.55764 -0.17786,0 -0.376297,-0.0529 -0.440967,-0.1176 z M 26.81757,200.02022 c 0,-0.15516 0.59549,-0.84969 1.32332,-1.54341 1.122371,-1.06976 1.323261,-1.34921 1.322921,-1.84024 -3.1e-4,-0.4362 -0.0966,-0.61455 -0.390711,-0.72333 -0.55489,-0.20527 -1.02029,-0.0384 -1.24045,0.44481 -0.23797,0.5223 -0.83869,0.56219 -0.83869,0.0557 0,-0.64353 0.77415,-1.22671 1.62843,-1.22671 0.927011,0 1.480501,0.35599 1.632991,1.05029 0.16466,0.74968 -0.30357,1.60262 -1.374501,2.50381 l -0.91197,0.76743 1.230691,0.0882 c 0.98969,0.0709 1.24218,0.14864 1.28935,0.39687 0.0529,0.27822 -0.12541,0.30868 -1.806371,0.30868 -1.59168,0 -1.86501,-0.0413 -1.86501,-0.2821 z m 4.409721,-0.15887 c 0,-0.24254 0.0595,-0.44138 0.13229,-0.44188 0.0728,-5e-4 0.628387,-0.47524 1.234723,-1.05497 0.947489,-0.90592 1.102431,-1.1421 1.102431,-1.68047 0,-0.48539 -0.08787,-0.65891 -0.390297,-0.77079 -0.55724,-0.20614 -1.02053,-0.0379 -1.243584,0.45169 -0.107131,0.23512 -0.315273,0.3998 -0.468113,0.37037 -0.44948,-0.0866 -0.42336,-0.62644 0.0534,-1.10316 0.338589,-0.33859 0.627565,-0.4451 1.207618,-0.4451 0.917935,0 1.480299,0.35506 1.628083,1.02791 0.167427,0.7623 -0.183487,1.44041 -1.270823,2.45577 l -0.991685,0.92605 h 1.266887 c 1.149294,0 1.266886,0.0327 1.266886,0.35277 0,0.32926 -0.117592,0.35278 -1.763889,0.35278 h -1.763887 z m 4.233333,0.0986 c 0,-0.19864 0.450076,-0.73551 1.072063,-1.27882 1.579823,-1.37996 1.928827,-2.19497 1.156606,-2.70095 -0.514262,-0.33695 -1.25906,-0.11249 -1.431712,0.43149 -0.16434,0.51779 -0.620568,0.46038 -0.620568,-0.0781 0,-0.72502 0.578917,-1.14653 1.574697,-1.14653 0.728857,0 0.928149,0.075 1.234722,0.46476 0.708577,0.90081 0.378922,1.85554 -1.081953,3.13347 l -0.927657,0.8115 h 1.27579 c 1.158197,0 1.275789,0.0325 1.275789,0.35277 0,0.32926 -0.117592,0.35278 -1.763889,0.35278 -1.628436,0 -1.763888,-0.0263 -1.763888,-0.34238 z m 16.933332,0.0216 c 0,-0.17641 0.555625,-0.84893 1.234722,-1.49448 1.068927,-1.01612 1.234722,-1.25644 1.234722,-1.78971 0,-0.42851 -0.103853,-0.67157 -0.341228,-0.79861 -0.456068,-0.24408 -1.181194,0.0401 -1.334443,0.52291 -0.168827,0.53193 -0.719106,0.37889 -0.659987,-0.18354 0.06689,-0.63634 0.667542,-1.05111 1.522202,-1.05111 0.89199,0 1.454039,0.36097 1.600524,1.02791 0.167428,0.7623 -0.183487,1.44041 -1.270822,2.45577 l -0.991685,0.92605 h 1.266886 c 1.149294,0 1.266887,0.0327 1.266887,0.35277 0,0.32926 -0.117593,0.35278 -1.763889,0.35278 -1.587575,0 -1.763889,-0.0321 -1.763889,-0.32074 z m 4.233333,-0.0216 c 0,-0.19864 0.450076,-0.73551 1.072064,-1.27882 1.579822,-1.37996 1.928826,-2.19497 1.156606,-2.70095 -0.517692,-0.3392 -1.252657,-0.11356 -1.394295,0.42806 -0.138736,0.53053 -0.657986,0.47161 -0.657986,-0.0747 0,-0.72502 0.578918,-1.14653 1.574698,-1.14653 0.728856,0 0.928149,0.075 1.234722,0.46476 0.708577,0.90081 0.378921,1.85554 -1.081954,3.13347 l -0.927657,0.8115 h 1.27579 c 1.158197,0 1.27579,0.0325 1.27579,0.35277 0,0.32926 -0.117593,0.35278 -1.763889,0.35278 -1.628437,0 -1.763889,-0.0263 -1.763889,-0.34238 z m 5.958902,-1.64199 c -0.04174,-1.66083 -0.09301,-1.97326 -0.314458,-1.91617 -0.916966,0.23639 -1.058333,0.22944 -1.058333,-0.052 0,-0.15923 0.181856,-0.35866 0.404124,-0.44316 0.222268,-0.0845 0.5098,-0.28098 0.638959,-0.43661 0.129159,-0.15563 0.423553,-0.28296 0.654209,-0.28296 h 0.419375 v 2.55764 c 0,2.42586 -0.01788,2.55764 -0.347001,2.55764 -0.321557,0 -0.350658,-0.1455 -0.396875,-1.98437 z m 90.702209,1.64199 c 0,-0.19864 0.45008,-0.73551 1.07207,-1.27882 1.57982,-1.37996 1.92882,-2.19497 1.1566,-2.70095 -0.51769,-0.3392 -1.25265,-0.11356 -1.39429,0.42806 -0.13356,0.51073 -0.65799,0.47573 -0.65799,-0.0439 0,-1.13538 2.06487,-1.65906 2.80942,-0.71252 0.70858,0.90081 0.37892,1.85554 -1.08195,3.13347 l -0.92766,0.8115 h 1.27579 c 1.1582,0 1.27579,0.0325 1.27579,0.35277 0,0.32926 -0.11759,0.35278 -1.76389,0.35278 -1.62843,0 -1.76389,-0.0263 -1.76389,-0.34238 z m 5.95891,-1.64199 c -0.0417,-1.66083 -0.093,-1.97326 -0.31446,-1.91617 -0.87577,0.22577 -1.05834,0.22447 -1.05834,-0.008 0,-0.13477 0.27782,-0.39465 0.61737,-0.57751 0.33954,-0.18286 0.61736,-0.39935 0.61736,-0.48108 0,-0.0817 0.19843,-0.14862 0.44097,-0.14862 h 0.44097 v 2.55764 c 0,2.42586 -0.0179,2.55764 -0.347,2.55764 -0.32156,0 -0.35066,-0.1455 -0.39687,-1.98437 z m 3.14921,1.5875 c -0.2401,-0.21828 -0.488,-0.57547 -0.55089,-0.79375 -0.0953,-0.33075 -0.0458,-0.39688 0.2967,-0.39688 0.25707,0 0.47625,0.14866 0.58515,0.39688 0.12054,0.27475 0.35406,0.41414 0.7589,0.453 0.69234,0.0665 1.09091,-0.21183 1.09091,-0.76168 0,-0.47443 -0.28251,-0.73794 -0.88014,-0.82095 -0.65589,-0.0911 -0.6663,-0.6072 -0.0149,-0.73748 0.68081,-0.13617 0.95222,-0.92133 0.44634,-1.29124 -0.46803,-0.34223 -0.74937,-0.2949 -1.21157,0.20383 -0.45754,0.49369 -0.98559,0.5839 -0.98559,0.16837 0,-0.14993 0.19483,-0.46743 0.43295,-0.70555 0.54655,-0.54655 1.78831,-0.60227 2.39913,-0.10767 0.48208,0.39037 0.53919,1.28214 0.11232,1.75383 -0.26933,0.29761 -0.26526,0.34045 0.0588,0.61791 0.57426,0.4917 0.52093,1.45165 -0.11231,2.02138 -0.31596,0.28427 -0.66074,0.39687 -1.2152,0.39687 -0.5558,0 -0.89717,-0.11191 -1.21063,-0.39687 z m 16.29188,0.10982 c 0,-0.15788 0.59531,-0.85963 1.32292,-1.55945 1.31867,-1.26832 1.55468,-1.74783 1.16389,-2.36478 -0.32318,-0.5102 -1.60486,-0.15839 -1.60486,0.44052 0,0.13364 -0.15875,0.24298 -0.35278,0.24298 -0.49642,0 -0.46341,-0.71652 0.0555,-1.20397 0.29924,-0.28112 0.62893,-0.38353 1.23473,-0.38353 1.03677,0 1.53203,0.43141 1.53203,1.33452 0,0.83115 -0.22436,1.21343 -1.30296,2.22005 l -0.9019,0.84171 1.19063,0.007 c 1.07079,0.006 1.19062,0.0422 1.19062,0.3595 0,0.32926 -0.11759,0.35278 -1.76389,0.35278 -1.51167,0 -1.76389,-0.041 -1.76389,-0.28705 z m 5.99722,-1.74763 c 0,-1.95696 -0.013,-2.0277 -0.34118,-1.85208 -0.48443,0.25926 -1.06993,0.22611 -1.06993,-0.0606 0,-0.13375 0.2355,-0.34073 0.52332,-0.45995 0.28783,-0.11922 0.61505,-0.32729 0.72716,-0.46237 0.1121,-0.13508 0.35286,-0.24561 0.53501,-0.24561 0.30875,0 0.33118,0.17319 0.33118,2.55764 0,2.44005 -0.0162,2.55764 -0.35278,2.55764 -0.33239,0 -0.35278,-0.11759 -0.35278,-2.03468 z m 2.46945,1.71394 c 0,-0.17641 0.55562,-0.84893 1.23472,-1.49448 1.06893,-1.01612 1.23472,-1.25644 1.23472,-1.78971 0,-0.42851 -0.10385,-0.67157 -0.34123,-0.79861 -0.45606,-0.24408 -1.18119,0.0401 -1.33444,0.52291 -0.16883,0.53193 -0.7191,0.37889 -0.65999,-0.18354 0.0669,-0.63634 0.66755,-1.05111 1.52221,-1.05111 0.89199,0 1.45404,0.36097 1.60052,1.02791 0.16743,0.7623 -0.18349,1.44041 -1.27082,2.45577 l -0.99169,0.92605 h 1.26689 c 1.14929,0 1.26689,0.0327 1.26689,0.35277 0,0.32926 -0.1176,0.35278 -1.76389,0.35278 -1.58758,0 -1.76389,-0.0321 -1.76389,-0.32074 z M 40.575901,186.19147 v -3.175 h 0.617361 0.617361 v 3.175 3.175 h -0.617361 -0.617361 z m 112.359729,2.79079 c 0,-0.1143 0.59531,-0.81956 1.32291,-1.56724 1.35736,-1.39482 1.61857,-1.99332 1.069,-2.44942 -0.39647,-0.32904 -1.21991,-0.15511 -1.4195,0.29983 -0.19751,0.45017 -0.79603,0.54092 -0.79603,0.12069 0,-1.14475 1.87502,-1.68072 2.86632,-0.81932 0.20754,0.18034 0.30868,0.52538 0.30868,1.053 0,0.72651 -0.0786,0.86166 -1.05833,1.82035 -0.58208,0.56957 -1.05833,1.07725 -1.05833,1.12817 0,0.0509 0.51594,0.0926 1.14653,0.0926 0.90154,0 1.14652,0.0565 1.14652,0.26459 0,0.21754 -0.31358,0.26458 -1.76389,0.26458 -1.23618,0 -1.76388,-0.0622 -1.76388,-0.20782 z m 5.99722,-1.75133 c 0,-1.79769 -0.0254,-1.94845 -0.30868,-1.8294 -0.78782,0.33115 -1.10243,0.31076 -1.10243,-0.0714 0,-0.20534 0.10836,-0.37334 0.24079,-0.37334 0.13244,0 0.44262,-0.15875 0.68928,-0.35278 0.24667,-0.19403 0.61456,-0.35278 0.81754,-0.35278 0.3569,0 0.36905,0.0813 0.36905,2.46945 0,2.35185 -0.0168,2.46944 -0.35277,2.46944 -0.33161,0 -0.35278,-0.11759 -0.35278,-1.95915 z m 4.05694,0 c 0,-1.79769 -0.0254,-1.94845 -0.30868,-1.8294 -1.29958,0.54626 -1.52566,-0.002 -0.28646,-0.69429 1.32456,-0.74031 1.3007,-0.77725 1.3007,2.0134 0,2.35185 -0.0168,2.46944 -0.35278,2.46944 -0.3316,0 -0.35278,-0.11759 -0.35278,-1.95915 z m -136.70139,1.413 c 0,-0.24601 0.41485,-0.76268 1.16235,-1.44762 1.3579,-1.24427 1.6173,-1.74447 1.21952,-2.35157 -0.36628,-0.55901 -1.05358,-0.54755 -1.42795,0.0238 -0.37974,0.57955 -1.02925,0.61291 -0.85868,0.0441 0.16567,-0.55246 0.45296,-0.81881 1.05965,-0.98242 1.29583,-0.34945 2.342441,0.45789 2.121351,1.63639 -0.088,0.46922 -0.409531,0.92366 -1.196731,1.69155 l -1.07636,1.04997 h 1.27525 c 1.119431,0 1.268031,0.0377 1.216171,0.30868 -0.0506,0.26452 -0.3048,0.3159 -1.776821,0.35916 -1.66022,0.0488 -1.71775,0.0377 -1.71775,-0.33205 z m 4.233331,0.0499 c 0,-0.18293 0.55393,-0.85976 1.23096,-1.50408 1.294838,-1.23227 1.576617,-1.77762 1.241768,-2.40329 -0.27895,-0.52123 -1.252198,-0.43938 -1.500318,0.12616 -0.20959,0.47774 -0.79602,0.53506 -0.79602,0.0778 0,-0.80484 1.00392,-1.31908 2.098376,-1.07485 0.629573,0.14049 0.834932,0.34339 1.009113,0.99704 0.195482,0.73358 -0.125807,1.36071 -1.219963,2.38125 l -1.087396,1.01424 h 1.288564 c 1.132116,0 1.281392,0.0375 1.229491,0.30868 -0.05062,0.26452 -0.304804,0.3159 -1.776823,0.35916 -1.583272,0.0465 -1.717752,0.0245 -1.717752,-0.28212 z m 6.350004,-0.20933 v -0.52917 h -1.234722 c -1.021453,0 -1.234723,-0.0494 -1.234723,-0.28624 0,-0.15743 0.530357,-1.07024 1.178571,-2.02847 0.923703,-1.36547 1.267002,-1.74224 1.5875,-1.74224 0.39895,0 0.408929,0.0409 0.408929,1.6757 0,1.5581 0.02476,1.67569 0.352778,1.67569 0.235185,0 0.352778,0.1176 0.352778,0.35278 0,0.23519 -0.117593,0.35278 -0.352778,0.35278 -0.274383,0 -0.352778,0.11759 -0.352778,0.52917 0,0.41157 -0.0784,0.52916 -0.352778,0.52916 -0.274382,0 -0.352777,-0.11759 -0.352777,-0.52916 z m 0,-2.42479 v -1.19006 l -0.631016,0.88138 c -1.0848,1.51521 -1.082944,1.49874 -0.16894,1.49874 h 0.799956 z m 141.463985,1.93972 c 6e-5,-0.16978 0.52266,-0.77599 1.16135,-1.34714 1.29116,-1.15463 1.58345,-1.62964 1.41522,-2.29993 -0.0953,-0.37961 -0.21514,-0.45398 -0.73172,-0.45398 -0.4878,0 -0.66006,0.0928 -0.81871,0.44098 -0.24669,0.54143 -0.84985,0.59833 -0.84985,0.0802 0,-0.61893 0.77542,-1.2267 1.56506,-1.2267 0.95191,0 1.22468,0.13108 1.53946,0.7398 0.42915,0.82989 0.16992,1.48235 -1.05026,2.64344 l -1.07873,1.02648 h 1.18793 c 1.07034,0 1.18793,0.0349 1.18793,0.35278 0,0.32926 -0.11759,0.35278 -1.76389,0.35278 -1.56234,0 -1.76387,-0.0353 -1.76379,-0.30868 z m 5.82074,-1.726 c 0,-1.95697 -0.013,-2.02771 -0.34118,-1.85208 -1.04181,0.55755 -1.18929,-0.0903 -0.17216,-0.75622 1.21765,-0.79721 1.21889,-0.79509 1.21889,2.08534 0,2.44004 -0.0162,2.55764 -0.35277,2.55764 -0.33239,0 -0.35278,-0.1176 -0.35278,-2.03468 z m 3.26686,1.61341 c -0.75982,-0.75982 -0.8464,-3.18815 -0.14719,-4.12806 0.47243,-0.63506 1.79126,-0.7703 2.32332,-0.23824 0.8401,0.84011 0.83027,3.48949 -0.0163,4.39062 -0.52261,0.5563 -1.59124,0.54426 -2.15983,-0.0243 z m 1.81525,-0.6495 c 0.23956,-0.3836 0.31911,-2.18674 0.12364,-2.8026 -0.27505,-0.86659 -1.34254,-0.80126 -1.68642,0.10321 -0.25318,0.66593 -0.20179,1.95833 0.10117,2.54419 0.33039,0.63892 1.10796,0.72148 1.46161,0.1552 z m -137.197392,0.55652 c 0,-0.1944 0.47853,-0.75799 1.12692,-1.32725 1.270922,-1.1158 1.659627,-1.79933 1.351089,-2.37583 -0.335011,-0.62598 -1.772453,-0.34264 -1.772453,0.34937 0,0.0901 -0.119063,0.16379 -0.264583,0.16379 -0.389178,0 -0.330921,-0.81561 0.08819,-1.23472 0.255694,-0.2557 0.587963,-0.35278 1.207384,-0.35278 0.966981,0 1.367325,0.30584 1.541711,1.17777 0.145457,0.72728 -0.240547,1.41801 -1.349729,2.41526 l -0.908354,0.81669 h 1.2538 c 1.136206,0 1.253799,0.0331 1.253799,0.35278 0,0.32926 -0.117593,0.35278 -1.763889,0.35278 -1.620339,0 -1.763889,-0.0275 -1.763889,-0.33786 z m 4.056945,0.0508 c 0,-0.15788 0.595312,-0.85963 1.322916,-1.55945 1.339264,-1.28813 1.607358,-1.85545 1.11125,-2.35156 -0.373795,-0.37379 -1.165433,-0.25116 -1.480248,0.22931 -0.158915,0.24253 -0.398869,0.44097 -0.533233,0.44097 -0.360653,0 -0.296783,-0.59125 0.121283,-1.12274 0.305869,-0.38885 0.506418,-0.46476 1.227851,-0.46476 1.066743,0 1.582153,0.45666 1.580407,1.40027 -0.0014,0.7551 -0.352336,1.32203 -1.409949,2.27772 l -0.79375,0.71726 1.190625,0.007 c 1.070621,0.007 1.190625,0.0428 1.190625,0.36001 0,0.32926 -0.117592,0.35278 -1.763889,0.35278 -1.51167,0 -1.763888,-0.041 -1.763888,-0.28705 z M 26.46479,178.20769 c 0,-0.12247 0.59531,-0.79526 1.32292,-1.49508 0.93782,-0.90202 1.32291,-1.3978 1.32291,-1.70318 0,-0.77167 -0.17927,-0.98879 -0.8164,-0.98879 -0.47125,0 -0.64598,0.0959 -0.80319,0.44097 -0.2467,0.54143 -0.84985,0.59834 -0.84985,0.0802 0,-0.64354 0.77415,-1.22671 1.62843,-1.22671 2.099731,0 2.243121,1.84609 0.28046,3.6107 l -0.87028,0.78246 1.19866,0.0524 c 0.976441,0.0427 1.209581,0.10961 1.257521,0.36106 0.053,0.27823 -0.12513,0.30868 -1.806161,0.30868 -1.38419,0 -1.86502,-0.0574 -1.86502,-0.22267 z m 4.409721,-0.11519 c 0,-0.1944 0.47853,-0.75799 1.126922,-1.32725 1.270922,-1.1158 1.659626,-1.79932 1.351089,-2.37583 -0.335011,-0.62598 -1.772451,-0.34264 -1.772451,0.34937 0,0.0901 -0.11907,0.16379 -0.26459,0.16379 -0.38917,0 -0.33092,-0.81561 0.0882,-1.23472 0.432544,-0.43254 1.681917,-0.47876 2.246771,-0.0831 0.521763,0.36546 0.680765,1.30811 0.333815,1.97904 -0.150074,0.29021 -0.677475,0.89144 -1.172002,1.33606 l -0.899139,0.80841 1.198664,0.0524 c 0.976437,0.0427 1.209576,0.10961 1.257519,0.36106 0.0529,0.27745 -0.120928,0.30868 -1.717968,0.30868 -1.63308,0 -1.77682,-0.0273 -1.77682,-0.33786 z m 5.073053,0.0937 c -0.726052,-0.55128 -1.074303,-2.46512 -0.65158,-3.58081 0.103477,-0.2731 0.355438,-0.67514 0.559914,-0.89342 0.722509,-0.77129 2.603337,-0.35713 2.603337,0.57326 0,0.33032 -0.634741,0.35077 -0.75995,0.0245 -0.29129,-0.75909 -1.576412,-0.18164 -1.81017,0.81337 -0.111592,0.475 0.134127,0.68266 0.365259,0.30868 0.05996,-0.097 0.455756,-0.17639 0.879552,-0.17639 0.968302,0 1.501698,0.57517 1.501698,1.6193 0,0.97788 -0.607218,1.55761 -1.62358,1.55009 -0.416719,-0.003 -0.895735,-0.11044 -1.06448,-0.23856 z m 1.590479,-0.55958 c 0.544366,-0.38129 0.527357,-1.21611 -0.03225,-1.58278 -0.384117,-0.25168 -0.486115,-0.25215 -1.077685,-0.005 -0.585561,0.24466 -0.641463,0.32348 -0.538344,0.759 0.119125,0.50312 0.690577,1.10334 1.050457,1.10334 0.113187,0 0.382206,-0.12356 0.59782,-0.27458 z m 115.750357,0.5167 c 0,-0.15788 0.59532,-0.85963 1.32292,-1.55945 1.33926,-1.28813 1.60736,-1.85545 1.11125,-2.35156 -0.3738,-0.37379 -1.16543,-0.25116 -1.48025,0.22931 -0.15891,0.24253 -0.39887,0.44097 -0.53323,0.44097 -0.36065,0 -0.29678,-0.59125 0.12128,-1.12274 0.30525,-0.38806 0.5069,-0.46476 1.22192,-0.46476 0.71503,0 0.91667,0.0767 1.22192,0.46476 0.69754,0.88678 0.40274,1.8767 -0.9226,3.09805 l -0.91668,0.84474 1.19063,10e-4 c 1.07267,9.8e-4 1.19062,0.036 1.19062,0.35386 0,0.32926 -0.11759,0.35278 -1.76389,0.35278 -1.51167,0 -1.76389,-0.041 -1.76389,-0.28705 z m 5.07306,0.0429 c -1.03897,-0.78887 -1.09606,-3.58434 -0.0923,-4.51948 0.41644,-0.38797 1.35431,-0.46643 1.92494,-0.16104 0.50935,0.27259 0.85541,1.2302 0.85541,2.36705 0,1.13685 -0.34606,2.09446 -0.85541,2.36705 -0.48416,0.25911 -1.45832,0.23063 -1.83264,-0.0536 z m 1.78756,-1.18954 c 0.26675,-0.76521 0.24447,-1.63409 -0.0606,-2.36432 -0.20807,-0.49797 -0.35038,-0.61169 -0.76544,-0.61169 -0.37519,0 -0.56392,0.11866 -0.71456,0.44927 -0.2622,0.57546 -0.2644,2.22532 -0.004,2.79742 0.37334,0.81939 1.21584,0.67173 1.54437,-0.27068 z m 2.19645,1.17452 c -0.20353,-0.14255 -0.41219,-0.42036 -0.46371,-0.61736 -0.12688,-0.4852 0.45408,-0.48296 0.94067,0.004 0.61189,0.61189 1.75486,-0.0426 1.75486,-1.00491 0,-0.36813 -0.0475,-0.40223 -0.34118,-0.24504 -0.52641,0.28172 -1.51819,0.21646 -1.94344,-0.12789 -0.23781,-0.19257 -0.4211,-0.59127 -0.4826,-1.04982 -0.0879,-0.65496 -0.0378,-0.8007 0.43852,-1.27702 0.66351,-0.66351 1.67403,-0.73773 2.38886,-0.17544 0.98908,0.77801 1.05937,3.21424 0.12169,4.21802 -0.40927,0.43813 -0.63957,0.53502 -1.2717,0.53502 -0.42456,0 -0.93845,-0.11664 -1.14197,-0.25919 z m 2.06974,-2.66847 c 0.28926,-0.34853 0.0529,-1.07713 -0.45808,-1.41192 -0.40496,-0.26534 -0.4716,-0.2652 -0.87914,0.002 -0.89263,0.58487 -0.34491,1.9359 0.70356,1.73547 0.23771,-0.0454 0.52285,-0.19186 0.63366,-0.32538 z M 40.575901,175.24421 v -2.48062 l 0.573264,0.0553 0.573264,0.0553 0.04908,2.42535 0.04908,2.42534 H 41.19824 40.575901 Z m 20.6895,2.27831 c -0.87948,-0.24338 -1.520654,-1.38519 -0.777843,-1.38519 0.18287,0 0.462513,0.19844 0.621427,0.44098 0.560117,0.85484 1.868304,0.43289 1.868304,-0.60263 0,-0.6814 -0.55723,-1.14994 -1.184444,-0.99593 -1.460277,0.35857 -1.523267,0.35421 -1.402441,-0.0973 0.06194,-0.23146 0.113707,-0.83755 0.115032,-1.34687 l 0.0024,-0.92604 h 1.514005 c 1.132436,0 1.495658,0.0556 1.441208,0.22048 -0.04507,0.13652 -0.487288,0.24049 -1.161226,0.273 l -1.088431,0.0525 v 0.65431 0.65431 l 0.75164,-0.0598 c 1.133276,-0.0901 1.717804,0.43342 1.717804,1.5386 0,0.64523 -0.09144,0.9213 -0.396875,1.19824 -0.486881,0.44144 -1.269498,0.58912 -2.020568,0.38128 z m -9.577,-0.1819 c 0,-0.1143 0.595312,-0.81956 1.322916,-1.56724 1.357361,-1.39482 1.618565,-1.99332 1.069,-2.44942 -0.39647,-0.32904 -1.219914,-0.15511 -1.419507,0.29983 -0.213746,0.4872 -0.796021,0.53375 -0.796021,0.0636 0,-0.18328 0.151737,-0.52062 0.337194,-0.74965 0.275783,-0.34058 0.503491,-0.41642 1.250306,-0.41642 0.746816,0 0.974524,0.0758 1.250307,0.41642 0.718445,0.88724 0.324313,1.97694 -1.202642,3.32507 l -0.841415,0.74287 1.27882,0.007 c 1.016123,0.005 1.278819,0.0611 1.278819,0.27136 0,0.21755 -0.31358,0.26458 -1.763889,0.26458 -1.236188,0 -1.763888,-0.0622 -1.763888,-0.20782 z m 4.233333,0 c 0,-0.1143 0.595312,-0.81956 1.322916,-1.56724 1.331994,-1.36875 1.594065,-1.94018 1.11125,-2.42299 -0.385956,-0.38596 -1.187042,-0.25549 -1.407928,0.2293 -0.238336,0.5231 -0.849849,0.60062 -0.849849,0.10774 0,-0.18328 0.151736,-0.52062 0.337193,-0.74965 0.272734,-0.33682 0.505228,-0.41642 1.216203,-0.41642 1.182718,0 1.621603,0.39428 1.621603,1.45681 0,0.7265 -0.07857,0.86165 -1.058333,1.82034 -0.582083,0.56957 -1.058333,1.07725 -1.058333,1.12818 0,0.0509 0.515937,0.0926 1.146528,0.0926 0.901543,0 1.146527,0.0565 1.146527,0.26458 0,0.21755 -0.31358,0.26458 -1.763889,0.26458 -1.236188,0 -1.763888,-0.0622 -1.763888,-0.20782 z m 127.420576,-0.0452 c -0.67367,-0.29322 -0.94974,-0.99807 -0.94974,-2.42482 0,-1.35787 0.33438,-2.13758 1.04251,-2.4309 1.37998,-0.5716 2.36076,0.44131 2.36076,2.4381 0,1.36108 -0.36845,2.24575 -1.04195,2.50181 -0.57012,0.21676 -0.74395,0.20639 -1.41158,-0.0842 z m 1.46892,-0.98172 c 0.12208,-0.24253 0.22197,-0.87753 0.22197,-1.41111 0,-1.22058 -0.29462,-1.83469 -0.91484,-1.90692 -0.62017,-0.0722 -1.02024,0.67554 -1.02024,1.90692 0,1.23138 0.40007,1.97915 1.02024,1.90692 0.29114,-0.0339 0.55563,-0.22317 0.69287,-0.49581 z m 2.92062,1.1107 c -0.49408,-0.0954 -1.10595,-0.85631 -1.10595,-1.37528 0,-0.21637 0.15905,-0.59559 0.35344,-0.84272 0.33935,-0.43142 0.34131,-0.47044 0.0491,-0.97959 -0.60427,-1.05288 0.33217,-2.13621 1.63527,-1.89174 0.32818,0.0616 0.7183,0.23355 0.86694,0.38219 0.31887,0.31887 0.36006,1.4958 0.0627,1.79311 -0.15907,0.15907 -0.14336,0.28051 0.0673,0.52034 0.7163,0.81539 0.4998,1.85629 -0.4704,2.26166 -0.61847,0.25842 -0.74492,0.26986 -1.45848,0.13203 z m 1.4626,-0.94636 c 0.30132,-0.33296 0.30707,-0.40617 0.0659,-0.83785 -0.47163,-0.84408 -1.92886,-0.59063 -1.92886,0.33547 0,0.82474 1.26302,1.16533 1.86299,0.50238 z m -0.46104,-2.09972 c 0.75712,-0.40519 0.53258,-1.41601 -0.31455,-1.41601 -0.91162,0 -1.23294,0.81285 -0.51899,1.31292 0.46319,0.32443 0.42809,0.32009 0.83354,0.10309 z m -10.57417,2.77758 c 0,-0.11887 0.60073,-0.78834 1.33495,-1.48769 1.18921,-1.13273 1.32883,-1.33348 1.27882,-1.83865 -0.0309,-0.3119 -0.18276,-0.64631 -0.33752,-0.74314 -0.40059,-0.25064 -1.17422,-0.0105 -1.30625,0.40547 -0.1494,0.47072 -0.79362,0.47039 -0.79362,-4.1e-4 0,-0.86107 1.45903,-1.48463 2.40874,-1.02945 0.61424,0.2944 1.01345,1.07615 0.86058,1.68522 -0.0626,0.24936 -0.59824,0.95788 -1.19035,1.5745 l -1.07655,1.12112 h 1.26268 c 1.00479,0 1.26268,0.054 1.26268,0.26458 0,0.21839 -0.32338,0.26459 -1.85208,0.26459 -1.34419,0 -1.85208,-0.0593 -1.85208,-0.21614 z M 26.4665,167.28015 c 0.001,-0.2742 0.39633,-0.75984 1.23472,-1.51742 1.0425,-0.94201 1.23301,-1.20228 1.23301,-1.68451 0,-1.03685 -0.91852,-1.36313 -1.55598,-0.55272 -0.37922,0.48209 -0.91346,0.59101 -0.91346,0.18622 0,-0.14011 0.18019,-0.46422 0.40041,-0.72025 0.33075,-0.38452 0.54983,-0.46551 1.25922,-0.46551 1.109521,0 1.595551,0.43874 1.595551,1.4403 0,0.62912 -0.12037,0.82502 -1.137431,1.8512 l -1.13742,1.14762 h 1.28666 c 1.130301,0 1.279481,0.0375 1.227581,0.30868 -0.0506,0.26452 -0.3048,0.3159 -1.776821,0.35917 -1.68699,0.0496 -1.71772,0.0433 -1.71604,-0.35278 z m 4.231621,0.0709 c 0,-0.18278 0.47455,-0.78496 1.05456,-1.3382 1.641486,-1.56571 1.892717,-2.07257 1.314094,-2.65119 -0.419945,-0.41995 -1.082517,-0.34324 -1.414734,0.16379 -0.34686,0.52937 -0.77753,0.57822 -0.77753,0.0882 0,-1.09563 1.952351,-1.51579 2.778127,-0.59787 0.761399,0.84635 0.413266,1.81886 -1.14296,3.19283 l -0.841417,0.74288 1.291755,0.007 c 1.133162,0.006 1.2845,0.0447 1.232679,0.31546 -0.05062,0.26452 -0.304804,0.3159 -1.776823,0.35917 -1.582761,0.0465 -1.717751,0.0244 -1.717751,-0.28183 z m 4.748934,-0.19606 c -0.63089,-0.63089 -0.665516,-1.2908 -0.09753,-1.85878 0.344834,-0.34484 0.377764,-0.4593 0.187996,-0.65344 -0.823213,-0.84221 -0.161886,-2.13557 1.091967,-2.13557 0.387597,0 0.872026,0.0895 1.076509,0.19898 0.519463,0.27801 0.683798,1.15894 0.319822,1.71444 -0.271137,0.41381 -0.266837,0.46703 0.07261,0.89856 1.240081,1.57651 -1.212497,3.27468 -2.651366,1.83581 z m 2.029442,-0.46714 c 0.391306,-0.39131 0.343986,-0.89075 -0.114843,-1.21212 -0.530566,-0.37163 -0.948441,-0.34523 -1.380886,0.0872 -0.372903,0.3729 -0.33511,0.99568 0.07689,1.2671 0.341522,0.22499 1.130751,0.14589 1.418836,-0.14219 z m -0.251985,-2.36865 c 0.613836,-0.61384 0.333122,-1.23472 -0.558238,-1.23472 -1.058254,0 -0.99029,1.46163 0.07317,1.57357 0.07276,0.008 0.291042,-0.14482 0.485068,-0.33885 z m 14.463889,1.83456 c 0,-0.15516 0.595494,-0.84969 1.323321,-1.5434 1.345062,-1.28202 1.618137,-1.86526 1.110845,-2.37255 -0.373795,-0.3738 -1.165433,-0.25116 -1.480248,0.2293 -0.364344,0.55606 -0.77753,0.5724 -0.77753,0.0308 0,-1.13537 2.064868,-1.65906 2.80942,-0.71251 0.201069,0.25561 0.36558,0.66153 0.36558,0.90202 0,0.64969 -0.668259,1.71916 -1.484184,2.37524 l -0.720677,0.5795 1.144945,0.0882 c 0.907854,0.0699 1.157082,0.15211 1.203558,0.39687 0.05268,0.27744 -0.12126,0.30868 -1.718208,0.30868 -1.51085,0 -1.776822,-0.0422 -1.776822,-0.2821 z m 4.056944,0.0301 c 0,-0.13858 0.595312,-0.83581 1.322916,-1.5494 1.34104,-1.31521 1.61084,-1.8971 1.11125,-2.39669 -0.385955,-0.38596 -1.187042,-0.25549 -1.407928,0.2293 -0.246693,0.54144 -0.849849,0.59834 -0.849849,0.0802 0,-0.65794 0.773226,-1.2267 1.667676,-1.2267 1.083199,0 1.507323,0.4267 1.507323,1.51648 0,0.76398 -0.06315,0.87121 -1.090778,1.85208 l -1.090778,1.04116 h 1.178973 c 1.06138,0 1.178972,0.0352 1.178972,0.35278 0,0.32926 -0.117592,0.35277 -1.763888,0.35277 -1.411054,0 -1.763889,-0.0504 -1.763889,-0.25196 z m 4.939584,0.20787 c 3.83e-4,-0.0243 0.466348,-0.9966 1.035477,-2.16077 l 1.03478,-2.11666 -1.388254,-0.0512 c -1.243682,-0.0459 -1.388254,-0.0872 -1.388254,-0.39688 0,-0.32009 0.129656,-0.34564 1.753479,-0.34564 1.084814,0 1.799199,0.074 1.873375,0.19399 0.06594,0.1067 -0.385779,1.25491 -1.003826,2.55158 -0.945713,1.98411 -1.186592,2.35854 -1.520598,2.36364 -0.218281,0.003 -0.396561,-0.0138 -0.396179,-0.038 z m 92.956251,-0.29123 c 0,-0.19066 0.46009,-0.73391 1.06648,-1.25923 1.2914,-1.11876 1.6963,-1.80083 1.42392,-2.39865 -0.30028,-0.65903 -1.39711,-0.55546 -1.65988,0.15675 -0.17498,0.47426 -0.65413,0.38239 -0.65413,-0.12542 0,-0.98702 1.65084,-1.54825 2.59954,-0.88375 0.51438,0.36028 0.68098,1.30801 0.34419,1.95788 -0.28804,0.55577 -1.66854,1.98733 -1.9643,2.03695 -0.10213,0.0171 0.36922,0.0767 1.04742,0.13229 0.98565,0.0808 1.24487,0.16309 1.29175,0.40982 0.0527,0.27744 -0.1212,0.30868 -1.71817,0.30868 -1.6284,0 -1.77682,-0.028 -1.77682,-0.33532 z m 5.06655,0.11484 c -0.78497,-0.59161 -1.0639,-2.54724 -0.54742,-3.83804 0.32746,-0.81841 0.67371,-1.05675 1.53515,-1.05675 0.73616,0 1.24695,0.4115 1.51058,1.21694 0.40868,1.24859 0.14349,2.98344 -0.5487,3.58965 -0.41084,0.35981 -1.52251,0.4101 -1.94961,0.0882 z m 1.27649,-0.48135 c 0.69013,-0.36934 0.92337,-2.06371 0.42784,-3.10797 -0.22562,-0.47544 -0.38903,-0.59992 -0.78755,-0.59992 -0.30061,0 -0.56696,0.12415 -0.66224,0.30868 -0.49637,0.96136 -0.34605,2.90411 0.25893,3.34649 0.36963,0.27028 0.35802,0.26948 0.76302,0.0527 z m 2.82918,0.60963 c 0,-0.0507 0.47394,-1.0429 1.05319,-2.20486 l 1.05319,-2.11266 h -1.40597 c -1.28837,0 -1.40596,-0.0295 -1.40596,-0.35278 0,-0.32925 0.11759,-0.35277 1.76389,-0.35277 h 1.76389 v 0.44368 c 0,0.24403 -0.47687,1.39497 -1.0597,2.55764 -0.82162,1.63904 -1.13864,2.11395 -1.41111,2.11395 -0.19328,0 -0.35142,-0.0415 -0.35142,-0.0922 z m 15.875,-0.15976 c 0,-0.13858 0.59531,-0.83581 1.32292,-1.5494 1.34104,-1.31521 1.61084,-1.8971 1.11125,-2.39669 -0.38596,-0.38596 -1.18704,-0.25549 -1.40793,0.2293 -0.24669,0.54144 -0.84985,0.59834 -0.84985,0.0802 0,-0.65794 0.77323,-1.2267 1.66768,-1.2267 1.08397,0 1.50732,0.42653 1.50732,1.51866 0,0.76459 -0.0643,0.87509 -1.07842,1.85208 l -1.07842,1.03898 h 1.16661 c 1.04903,0 1.16662,0.0356 1.16662,0.35278 0,0.32926 -0.11759,0.35277 -1.76389,0.35277 -1.41105,0 -1.76389,-0.0504 -1.76389,-0.25196 z m 4.88828,-0.26471 c -0.84016,-0.99847 -0.76598,-3.39582 0.13115,-4.23863 0.59131,-0.55551 1.7807,-0.44924 2.26529,0.2024 0.73006,0.98173 0.6822,3.32958 -0.0845,4.14571 -0.58806,0.62596 -1.73897,0.57146 -2.31194,-0.10948 z m 1.64573,-0.33597 c 0.5329,-0.43152 0.67922,-1.95631 0.27953,-2.91292 -0.23933,-0.57279 -0.34859,-0.66032 -0.76419,-0.61216 -0.63732,0.0739 -0.92818,0.67607 -0.93147,1.92859 -0.002,0.7377 0.0907,1.10905 0.36298,1.45521 0.43408,0.55184 0.5302,0.56473 1.05315,0.14128 z m 2.7705,0.66212 c -0.52778,-0.3074 -0.83784,-1.14963 -0.83784,-2.27583 0,-1.86511 0.54697,-2.64892 1.8485,-2.64892 0.68019,0 1.50289,0.62323 1.50289,1.13851 0,0.39048 -0.31363,0.3369 -0.89593,-0.15308 -0.57568,-0.4844 -1.08989,-0.43813 -1.49072,0.13413 -0.14255,0.20352 -0.25919,0.55361 -0.25919,0.77797 0,0.34865 0.0496,0.3814 0.34119,0.22534 0.49888,-0.267 1.46298,-0.22295 1.90558,0.0871 0.42233,0.29581 0.67682,1.24977 0.49024,1.83764 -0.29449,0.92785 -1.70322,1.40226 -2.60472,0.87718 z m 1.36611,-0.45089 c 0.70423,-0.27024 0.66742,-1.68178 -0.0487,-1.86906 -0.18772,-0.0491 -0.59068,0.0156 -0.89548,0.14376 -0.68311,0.28723 -0.72724,0.79857 -0.12122,1.40459 0.45852,0.45852 0.59738,0.50032 1.06544,0.32071 z M 60.860622,155.90383 c -0.465072,-0.171 -0.881944,-0.62502 -0.881944,-0.96053 0,-0.43846 0.561516,-0.4202 0.841009,0.0273 0.255496,0.40911 1.127256,0.47954 1.429401,0.11548 0.108317,-0.13052 0.247863,-0.49192 0.310103,-0.80312 0.110563,-0.55281 0.101466,-0.5627 -0.395828,-0.43038 -0.872949,0.23229 -1.541209,0.10117 -1.964199,-0.3854 -1.162637,-1.3374 0.432762,-3.19871 2.132865,-2.48836 1.575173,0.65815 1.514241,4.2984 -0.08126,4.8546 -0.597959,0.20845 -0.964209,0.22699 -1.390149,0.0704 z m 1.422707,-2.70329 c 0.724172,-0.38756 0.184854,-1.75768 -0.691875,-1.75768 -0.631116,0 -0.907221,0.29525 -0.907221,0.97014 0,0.30074 0.09525,0.64205 0.211667,0.75847 0.260035,0.26004 0.929653,0.27407 1.387429,0.0291 z m -10.771317,2.44422 c 0,-0.1143 0.595312,-0.81956 1.322916,-1.56724 1.357361,-1.39482 1.618565,-1.99332 1.069,-2.44942 -0.39647,-0.32904 -1.219913,-0.15511 -1.419507,0.29983 -0.197501,0.45017 -0.79602,0.54092 -0.79602,0.12069 0,-0.88864 1.213169,-1.48495 2.270925,-1.11621 0.627121,0.21861 0.904074,0.61814 0.904074,1.3042 0,0.70338 -0.283853,1.14687 -1.380252,2.15648 l -1.000997,0.92176 1.278819,0.004 c 1.017233,0.003 1.278819,0.0584 1.278819,0.26887 0,0.21754 -0.31358,0.26458 -1.763889,0.26458 -1.236188,0 -1.763888,-0.0622 -1.763888,-0.20782 z m 4.233333,-0.0325 c 0,-0.1322 0.551814,-0.75804 1.226253,-1.39076 1.663178,-1.56029 1.880232,-2.61466 0.565212,-2.74559 -0.451022,-0.0449 -0.592557,0.029 -0.760178,0.39688 -0.224306,0.4923 -0.854898,0.62203 -0.854898,0.17587 0,-1.12538 1.891792,-1.66614 2.866319,-0.81932 0.207193,0.18005 0.30868,0.52523 0.30868,1.04991 0,0.71757 -0.08909,0.87447 -1.086292,1.91294 l -1.086292,1.13126 h 1.174487 c 0.926395,0 1.174486,0.0559 1.174486,0.26459 0,0.21754 -0.31358,0.26458 -1.763888,0.26458 -1.371314,0 -1.763889,-0.0535 -1.763889,-0.24036 z M 26.52783,155.2333 c -0.0743,-0.19365 0.30569,-0.66923 1.23837,-1.54982 1.14414,-1.08026 1.34549,-1.35683 1.345,-1.84749 -0.001,-1.03292 -1.36393,-1.2008 -1.6794,-0.20686 -0.13624,0.42925 -0.67105,0.39261 -0.75664,-0.0518 -0.0321,-0.1664 0.14203,-0.50283 0.38683,-0.74763 0.33859,-0.33859 0.62756,-0.44509 1.20762,-0.44509 0.917931,0 1.480301,0.35505 1.628081,1.0279 0.1672,0.76124 -0.17784,1.41943 -1.280731,2.4431 l -1.00564,0.93342 1.29175,0.003 c 1.134371,0.002 1.284561,0.0403 1.232681,0.31133 -0.0506,0.26457 -0.30497,0.3159 -1.779891,0.3592 -1.43834,0.0422 -1.73842,0.005 -1.82803,-0.22887 z m 4.779231,-0.20019 c -0.2379,-0.2567 -0.43255,-0.61388 -0.43255,-0.79375 0,-0.46446 0.58409,-0.41321 0.79602,0.0699 0.185778,0.42344 0.737251,0.58119 1.426784,0.40813 0.343914,-0.0863 0.423031,-0.21968 0.423031,-0.71309 0,-0.55525 -0.06007,-0.62492 -0.705556,-0.81831 -0.731547,-0.21918 -0.971401,-0.68472 -0.352777,-0.68472 0.360151,0 1.058333,-0.5735 1.058333,-0.86934 0,-0.28707 -0.542023,-0.71816 -0.902966,-0.71816 -0.19173,0 -0.532507,0.19844 -0.75728,0.44097 -0.492959,0.53191 -0.809199,0.56638 -0.809199,0.0882 0,-0.64108 0.62083,-1.05833 1.574698,-1.05833 0.734695,0 0.927236,0.0738 1.244693,0.47743 0.401799,0.51081 0.367924,1.15806 -0.08483,1.62079 -0.204028,0.20852 -0.183384,0.29266 0.13508,0.55054 0.571841,0.46305 0.51552,1.5102 -0.110173,2.0484 -0.708256,0.60922 -1.915376,0.58577 -2.503308,-0.0486 z m 4.341405,0.12541 c -0.65211,-0.65211 -0.905365,-2.38195 -0.52076,-3.55701 0.282149,-0.86203 0.767033,-1.21694 1.662573,-1.21694 0.607636,0 0.833431,0.0916 1.11804,0.45338 0.751344,0.95518 0.643897,3.68192 -0.171537,4.35321 -0.513253,0.42253 -1.65093,0.40474 -2.088316,-0.0326 z m 1.842279,-1.00998 c 0.226151,-0.47658 0.280473,-0.89724 0.207353,-1.6057 -0.249265,-2.41515 -1.990083,-2.06724 -1.959733,0.39166 0.01665,1.34901 0.275661,1.85979 0.943089,1.85979 0.405517,0 0.562182,-0.12501 0.809291,-0.64575 z m 115.974045,1.00949 c 0,-0.19777 0.48113,-0.77214 1.14174,-1.36301 1.2042,-1.07707 1.60978,-1.74125 1.42289,-2.3301 -0.23201,-0.731 -1.40099,-0.67474 -1.68842,0.0813 -0.21671,0.56998 -0.69982,0.55956 -0.69982,-0.0151 0,-0.72502 0.57892,-1.14652 1.5747,-1.14652 0.72886,0 0.92815,0.075 1.23472,0.46476 0.70972,0.90226 0.38033,1.85282 -1.08299,3.1253 l -0.93268,0.81105 1.27882,0.004 c 1.15979,0.004 1.27882,0.0371 1.27882,0.35708 0,0.32925 -0.11759,0.35277 -1.76389,0.35277 -1.62743,0 -1.76389,-0.0264 -1.76389,-0.34181 z m 4.78904,-0.0709 c -0.77859,-0.82877 -0.95255,-2.52417 -0.38685,-3.77029 0.3629,-0.79939 0.7596,-1.00095 1.77367,-0.90116 0.79901,0.0786 1.26937,0.75866 1.37081,1.98188 0.1688,2.03552 -0.41132,3.10229 -1.68707,3.10229 -0.48782,0 -0.79356,-0.11787 -1.07056,-0.41272 z m 1.82719,-0.93858 c 0.57807,-1.21818 0.0714,-3.23481 -0.81273,-3.23481 -0.55556,0 -0.86461,0.69353 -0.86461,1.94028 0,1.31045 0.31164,1.94028 0.96004,1.94028 0.29962,0 0.49385,-0.17486 0.7173,-0.64575 z m 2.18965,0.8357 c -0.58463,-0.58462 -0.64499,-0.85693 -0.2256,-1.01786 0.19283,-0.074 0.4046,0.0461 0.63207,0.35831 0.47702,0.65485 1.46503,0.66693 1.7591,0.0215 0.13937,-0.30589 0.15032,-0.59975 0.0345,-0.92604 -0.17459,-0.49188 -0.52014,-0.55365 -2.00817,-0.359 -0.43617,0.0571 -0.43862,0.0494 -0.37917,-1.1773 0.0329,-0.6791 0.0962,-1.29425 0.14075,-1.36701 0.0445,-0.0728 0.7197,-0.13229 1.50047,-0.13229 1.222,0 1.40467,0.0388 1.31251,0.27901 -0.0589,0.15345 -0.10707,0.3122 -0.10707,0.35277 0,0.0406 -0.47625,0.0738 -1.05833,0.0738 h -1.05834 v 0.57454 c 0,0.56958 0.007,0.57401 0.76585,0.51362 1.23452,-0.0982 1.7946,0.56839 1.72312,2.05076 -0.0603,1.25036 -2.04272,1.74419 -3.0317,0.7552 z m 16.06495,0.2218 c 0,-0.16159 0.59558,-0.85612 1.3235,-1.5434 1.12344,-1.06071 1.32341,-1.33683 1.32292,-1.82665 -7.9e-4,-0.781 -0.64955,-1.11549 -1.31627,-0.67863 -0.24651,0.16152 -0.4482,0.41672 -0.4482,0.56712 0,0.41655 -0.60844,0.21805 -0.67106,-0.21893 -0.0811,-0.56612 0.73333,-1.12098 1.64544,-1.12098 1.05874,0 1.57524,0.45615 1.57524,1.39118 0,0.65337 -0.10995,0.83423 -1.13742,1.87091 l -1.13743,1.14763 h 1.18553 c 1.06794,0 1.18553,0.035 1.18553,0.35278 0,0.32925 -0.11759,0.35277 -1.76389,0.35277 -1.52826,0 -1.76389,-0.0392 -1.76389,-0.2938 z m 5.03632,-0.10307 c -0.56112,-0.49334 -0.84015,-1.82299 -0.62,-2.95452 0.0849,-0.43656 0.15789,-0.85018 0.16211,-0.91917 0.004,-0.069 0.1814,-0.28726 0.39372,-0.48507 0.55345,-0.5156 1.72188,-0.49126 2.227,0.0464 0.7065,0.75205 0.8316,2.84837 0.23603,3.95553 -0.44817,0.83314 -1.65321,1.01238 -2.39886,0.35682 z m 1.79207,-0.83785 c 0.12208,-0.24253 0.22314,-0.80616 0.22457,-1.2525 0.006,-1.78552 -0.7444,-2.58454 -1.54862,-1.64957 -0.37719,0.4385 -0.4178,0.62842 -0.35857,1.67666 0.037,0.65456 0.17611,1.31386 0.31174,1.47728 0.35009,0.42183 1.10122,0.28383 1.37088,-0.25187 z m 4.10773,0.70556 v -0.52917 h -1.23473 c -1.1641,0 -1.23448,-0.0227 -1.23051,-0.39688 0.006,-0.57165 2.25545,-3.66006 2.66574,-3.66006 0.29653,0 0.32866,0.15682 0.32866,1.60401 0,1.45567 0.0326,1.61254 0.35278,1.69627 0.19403,0.0507 0.35278,0.23248 0.35278,0.40388 0,0.1714 -0.15875,0.35315 -0.35278,0.40389 -0.23839,0.0623 -0.35278,0.2406 -0.35278,0.54974 0,0.28906 -0.0974,0.45748 -0.26458,0.45748 -0.17639,0 -0.26458,-0.17639 -0.26458,-0.52916 z m 0,-2.29306 c 0,-0.58208 -0.0595,-1.05532 -0.1323,-1.05164 -0.13493,0.007 -1.4552,1.83155 -1.4552,2.01121 0,0.0543 0.35718,0.0988 0.79375,0.0988 h 0.79375 z M 57.821795,144.26284 c -0.53648,-0.0832 -1.194506,-0.80507 -1.194506,-1.31044 0,-0.48093 0.503551,-0.40181 0.739577,0.11622 0.347129,0.76186 1.762445,0.81495 1.997322,0.0749 0.160066,-0.50432 -0.336661,-1.18974 -0.911456,-1.25768 -0.677619,-0.0801 -0.700614,-0.41461 -0.0415,-0.60364 1.119966,-0.3212 1.13196,-1.3358 0.01711,-1.44729 -0.423631,-0.0424 -0.610313,0.0458 -0.840345,0.39688 -0.162651,0.24823 -0.405662,0.45134 -0.540025,0.45134 -0.351742,0 -0.300525,-0.59704 0.0929,-1.08289 0.275783,-0.34058 0.503492,-0.41642 1.250307,-0.41642 0.746815,0 0.974524,0.0758 1.250307,0.41642 0.409172,0.5053 0.430289,1.04787 0.06129,1.57469 -0.254794,0.36377 -0.248046,0.42932 0.08819,0.85678 0.944778,1.20109 -0.205641,2.50454 -1.969173,2.23112 z m -5.427839,-0.34857 c 0,-0.16315 0.555625,-0.8181 1.234722,-1.45545 1.095232,-1.02791 1.234722,-1.23218 1.234722,-1.80814 0,-0.50195 -0.08296,-0.67566 -0.365508,-0.76533 -0.543015,-0.17235 -1.183328,0.0453 -1.310316,0.44542 -0.125005,0.39385 -0.79362,0.48785 -0.79362,0.11157 0,-0.43065 0.697026,-1.14041 1.236261,-1.25885 0.799808,-0.17566 1.688493,0.18994 1.940495,0.79833 0.324512,0.78344 0.08425,1.34784 -1.097786,2.57881 l -1.076555,1.12112 h 1.262682 c 1.00479,0 1.262681,0.054 1.262681,0.26458 0,0.21755 -0.313581,0.26458 -1.763889,0.26458 -1.535027,0 -1.763889,-0.0385 -1.763889,-0.29664 z m 10.230555,-1.66421 c 0,-1.78692 -0.02738,-1.95222 -0.30868,-1.86361 -1.091716,0.34389 -1.102431,0.34397 -1.102431,0.008 0,-0.20784 0.276881,-0.47621 0.749653,-0.72662 1.370045,-0.72566 1.367014,-0.73026 1.367014,2.07336 0,2.35185 -0.0168,2.46944 -0.352778,2.46944 -0.331622,0 -0.352778,-0.11759 -0.352778,-1.96085 z m -35.746651,1.3344 c -0.078,-0.20316 0.28223,-0.65411 1.23787,-1.54983 1.108851,-1.03932 1.347791,-1.35868 1.347741,-1.80129 -8e-5,-0.63178 -0.27492,-0.96131 -0.801761,-0.96131 -0.40395,0 -0.9622,0.50166 -0.9622,0.86466 0,0.3403 -0.60545,0.14221 -0.6754,-0.22097 -0.0341,-0.17731 0.11769,-0.51375 0.33741,-0.74763 0.31262,-0.33277 0.58031,-0.42523 1.23114,-0.42523 1.145201,0 1.656471,0.42939 1.656471,1.39118 0,0.65337 -0.10995,0.83423 -1.137421,1.87092 l -1.13742,1.14762 h 1.286651 c 1.1303,0 1.27948,0.0375 1.22759,0.30868 -0.0506,0.26457 -0.30497,0.3159 -1.779901,0.3592 -1.45565,0.0427 -1.73776,0.006 -1.83077,-0.236 z m 4.782381,-0.15928 c -0.23812,-0.23812 -0.43295,-0.59531 -0.43295,-0.79375 0,-0.49515 0.574378,-0.46912 0.79602,0.0361 0.200646,0.45734 1.184119,0.64157 1.596752,0.29912 0.593648,-0.49268 0.01281,-1.57794 -0.84452,-1.57794 -0.531752,0 -0.346147,-0.44661 0.259734,-0.62498 0.451746,-0.13299 0.585605,-0.27688 0.631485,-0.6788 0.102581,-0.89861 -0.940906,-1.13469 -1.517402,-0.34329 -0.406159,0.55757 -0.952109,0.47712 -0.796639,-0.11739 0.14416,-0.55129 0.83224,-0.92434 1.683313,-0.91264 1.301486,0.0179 1.947354,1.26572 1.102208,2.12949 -0.204028,0.20853 -0.183384,0.29267 0.135079,0.55054 0.571842,0.46305 0.515521,1.5102 -0.110172,2.0484 -0.686851,0.59081 -1.904479,0.58359 -2.502908,-0.0148 z m 3.800383,0.10557 c 0,-0.19143 0.482035,-0.7839 1.10243,-1.355 1.553955,-1.43047 1.849414,-2.04335 1.26622,-2.62654 -0.4586,-0.4586 -1.111329,-0.34573 -1.450813,0.25087 -0.365984,0.64317 -0.741448,0.6884 -0.741448,0.0893 0,-0.7662 0.592587,-1.17206 1.622647,-1.11134 0.734928,0.0433 0.963081,0.13875 1.248417,0.52222 0.58331,0.78391 0.30286,1.60545 -0.965062,2.827 l -1.064234,1.02531 h 1.267744 c 1.112287,0 1.260499,0.0379 1.208669,0.30868 -0.05062,0.26452 -0.304803,0.3159 -1.776822,0.35917 -1.596379,0.0469 -1.717748,0.0264 -1.717748,-0.28968 z m 116.363836,0.0394 c -0.24036,-0.24036 -0.10989,-0.42541 1.19936,-1.70114 1.10702,-1.07866 1.32292,-1.38198 1.32292,-1.85858 0,-1.02619 -1.36495,-1.18828 -1.67882,-0.19936 -0.13624,0.42925 -0.67105,0.3926 -0.75664,-0.0519 -0.032,-0.16639 0.14203,-0.50282 0.38683,-0.74763 0.33858,-0.33858 0.62756,-0.44509 1.20761,-0.44509 0.91794,0 1.4803,0.35505 1.62808,1.02791 0.1672,0.76124 -0.17784,1.41943 -1.28072,2.4431 l -1.00565,0.93342 1.29175,0.003 c 1.13438,0.002 1.28456,0.0403 1.23268,0.31133 -0.0505,0.26394 -0.30293,0.31594 -1.74146,0.35874 -0.92531,0.0275 -1.73799,-0.006 -1.80594,-0.0735 z m 4.90964,-0.3072 c -0.75223,-0.75223 -0.83542,-3.20807 -0.14036,-4.14334 0.35984,-0.48419 1.12705,-0.67421 1.91933,-0.47536 1.16191,0.29162 1.42564,3.52586 0.37842,4.64058 -0.5215,0.55511 -1.59125,0.54426 -2.15739,-0.0219 z m 1.74777,-0.67875 c 0.18073,-0.25802 0.27459,-0.78726 0.27459,-1.54826 0,-1.72677 -0.70408,-2.46621 -1.50529,-1.58089 -0.4596,0.50785 -0.56683,2.22541 -0.18503,2.96372 0.34941,0.67569 1.0047,0.75226 1.41573,0.16543 z m 2.50354,0.7007 c -0.2401,-0.21828 -0.488,-0.57547 -0.55089,-0.79375 -0.0923,-0.32046 -0.0441,-0.39687 0.25033,-0.39687 0.20057,0 0.36466,0.0737 0.36466,0.16379 0,0.35637 0.58585,0.71815 1.16291,0.71815 0.48283,0 0.65134,-0.0939 0.81571,-0.45467 0.26788,-0.58794 0.0281,-0.98213 -0.71432,-1.17452 -0.7132,-0.18481 -0.70624,-0.50359 0.0183,-0.84025 0.7459,-0.34657 0.85965,-0.97386 0.22871,-1.26133 -0.53836,-0.2453 -1.33496,0.0315 -1.33496,0.4638 0,0.15077 -0.15458,0.26836 -0.35277,0.26836 -0.48479,0 -0.45522,-0.54782 0.0555,-1.02759 0.55272,-0.51925 1.90821,-0.53651 2.41398,-0.0307 0.44531,0.44531 0.45447,1.2644 0.0186,1.6589 -0.32659,0.29555 -0.3241,0.31258 0.10917,0.74585 0.36743,0.36743 0.42561,0.55448 0.33958,1.09189 -0.13692,0.8554 -0.66336,1.26586 -1.62354,1.26586 -0.54574,0 -0.88924,-0.11352 -1.20093,-0.39688 z m 17.17383,0.10925 c 0,-0.16498 0.59557,-0.86229 1.32349,-1.54957 1.12344,-1.06072 1.32341,-1.33683 1.32292,-1.82665 -7.9e-4,-0.78101 -0.64955,-1.11549 -1.31627,-0.67863 -0.24651,0.16151 -0.4482,0.41672 -0.4482,0.56712 0,0.37204 -0.59677,0.24124 -0.67157,-0.1472 -0.032,-0.16639 0.14203,-0.50282 0.38683,-0.74763 0.34204,-0.34204 0.6262,-0.44509 1.22732,-0.44509 1.09255,0 1.60704,0.44538 1.60704,1.39118 0,0.65337 -0.10995,0.83423 -1.13742,1.87092 l -1.13743,1.14762 h 1.28666 c 1.13031,0 1.27948,0.0375 1.22756,0.30868 -0.0509,0.26599 -0.30889,0.31564 -1.86502,0.35895 -1.60205,0.0446 -1.80591,0.0164 -1.80591,-0.2497 z m 4.85436,-0.13364 c -0.50861,-0.50861 -0.68821,-1.35283 -0.58662,-2.75736 0.10025,-1.38583 0.5758,-1.93665 1.67203,-1.93665 0.70842,0 1.4521,0.42208 1.47624,0.83785 0.004,0.0728 0.0772,0.48948 0.16211,0.92604 0.19997,1.0278 -0.0627,2.42093 -0.55537,2.94533 -0.53121,0.56545 -1.5952,0.55798 -2.16839,-0.0152 z m 1.75022,-0.67631 c 0.30965,-0.4421 0.37447,-2.14452 0.1083,-2.8446 -0.23695,-0.62321 -0.84331,-0.77107 -1.29791,-0.31647 -0.50039,0.50039 -0.62982,2.215 -0.22613,2.99564 0.34941,0.67569 1.00471,0.75226 1.41574,0.16543 z m 1.86208,0.75577 c 0,-0.19778 0.48113,-0.77215 1.14174,-1.36302 1.2042,-1.07707 1.60978,-1.74125 1.42289,-2.33009 -0.23201,-0.731 -1.40099,-0.67474 -1.68842,0.0813 -0.21671,0.56998 -0.69982,0.55957 -0.69982,-0.0151 0,-0.72502 0.57892,-1.14653 1.5747,-1.14653 0.72885,0 0.92815,0.075 1.23472,0.46476 0.70972,0.90226 0.38033,1.85282 -1.08299,3.12531 l -0.93268,0.81105 1.27882,0.004 c 1.15979,0.004 1.27882,0.0371 1.27882,0.35708 0,0.32926 -0.11759,0.35278 -1.76389,0.35278 -1.62743,0 -1.76389,-0.0265 -1.76389,-0.34181 z M 29.304351,133.92879 c -1.350811,-0.35494 -1.510821,-0.4438 -1.807991,-1.00401 -0.71514,-1.34819 -0.20555,-2.99883 1.03182,-3.34221 1.557491,-0.43222 2.718321,-0.59245 2.909221,-0.40154 0.32868,0.32868 0.016,0.70298 -0.68651,0.82166 -1.742441,0.29439 -1.06396,0.4446 2.019802,0.44719 l 3.219097,0.003 v 0.43554 0.43555 l -2.146352,0.0495 c -1.523781,0.0352 -2.167587,0.11348 -2.219557,0.27002 -0.056,0.16862 0.451593,0.22048 2.158065,0.22048 h 2.231277 l -0.05581,0.48507 -0.05581,0.48507 -3.086806,0.0541 -3.086806,0.0541 0.88195,0.29867 c 0.66479,0.22514 0.88194,0.38554 0.88194,0.65145 0,0.48932 -0.43686,0.49663 -2.18752,0.0366 z m 160.672939,-1.18315 c -0.19403,-0.19403 -0.35278,-0.47184 -0.35278,-0.61736 0,-0.3747 0.64184,-0.97014 1.04574,-0.97014 0.82061,0 1.25565,1.38183 0.55336,1.75768 -0.50631,0.27097 -0.85243,0.2237 -1.24632,-0.17018 z m -164.83744,-0.5957 c -0.58055,-0.88603 0.55585,-1.9524 1.33205,-1.24995 0.38594,0.34927 0.45805,1.13354 0.134,1.45759 -0.36516,0.36516 -1.16496,0.25188 -1.46605,-0.20764 z m 3.6304,-6.07825 c -1.28312,-0.40815 -1.51773,-0.54528 -1.71184,-1.00056 -0.2974,-0.69755 -0.29675,-1.55163 0.002,-2.26598 0.2234,-0.53467 0.37551,-0.6198 1.92504,-1.07739 1.689501,-0.49892 2.242121,-0.50444 2.242121,-0.0224 0,0.34232 -0.23064,0.47072 -1.49738,0.83361 -0.614971,0.17617 -0.875061,0.30845 -0.619291,0.31495 0.242541,0.006 0.956911,-0.14631 1.587501,-0.33886 1.378687,-0.42097 1.587503,-0.43257 1.587503,-0.0882 0,0.21661 0.303781,0.26458 1.675694,0.26458 1.669815,0 1.675695,0.002 1.675695,0.44097 0,0.43943 -0.0059,0.44097 -1.675695,0.44097 -1.352804,0 -1.675694,0.0497 -1.675694,0.25797 0,0.20411 0.340607,0.26855 1.631597,0.30868 l 1.631597,0.0507 0.05581,0.48506 0.05581,0.48507 h -1.687411 c -1.382327,0 -1.68741,0.0478 -1.68741,0.26459 0,0.34404 -0.21227,0.33172 -1.559116,-0.0905 -0.61498,-0.19278 -1.32936,-0.34485 -1.587501,-0.33794 -0.29599,0.008 -0.0569,0.13046 0.647321,0.33175 1.24556,0.35602 1.53766,0.56039 1.38172,0.96675 -0.14503,0.37794 -0.65568,0.33026 -2.397801,-0.2239 z m 99.29454,-7.42599 c 0,-0.25647 0.14288,-0.35538 0.57327,-0.39687 0.52336,-0.0505 0.57803,-0.11285 0.62801,-0.71674 0.0516,-0.62305 0.0893,-0.66145 0.65081,-0.66145 0.56146,0 0.59924,-0.0384 0.65081,-0.66146 0.0518,-0.62554 0.0907,-0.66443 0.7162,-0.71621 0.64474,-0.0534 0.66146,-0.0725 0.66146,-0.75887 v -0.70412 l 0.92604,0.0533 c 0.80675,0.0464 0.9333,0.10444 0.98241,0.45019 0.0494,0.34798 -0.0212,0.39688 -0.57327,0.39688 -0.59987,0 -0.62963,0.0287 -0.62963,0.60671 0,0.57377 -0.0359,0.60969 -0.66145,0.66146 -0.62554,0.0518 -0.66443,0.0907 -0.71621,0.7162 -0.0518,0.62554 -0.0877,0.66146 -0.66145,0.66146 -0.59024,0 -0.60672,0.0192 -0.60672,0.70556 v 0.70555 h -0.97014 c -0.84196,0 -0.97014,-0.0451 -0.97014,-0.3416 z m 3.88056,-0.27576 c 0,-0.33955 0.0794,-0.61736 0.17639,-0.61736 0.097,0 0.17639,0.0955 0.17639,0.21219 0,0.1167 0.30837,-0.0889 0.68526,-0.45696 0.86282,-0.84252 1.21531,-0.536 0.37757,0.32832 -0.35969,0.37111 -0.49376,0.62585 -0.36973,0.7025 0.32102,0.1984 0.027,0.44867 -0.52712,0.44867 -0.47528,0 -0.51876,-0.0518 -0.51876,-0.61736 z m -75.847227,0.0882 c 0,-0.28559 0.117592,-0.35278 0.617361,-0.35278 0.602662,0 0.617361,-0.0168 0.617361,-0.70556 v -0.70555 H 58.0384 c 0.688757,0 0.705556,-0.0147 0.705556,-0.61736 0,-0.58797 0.0294,-0.61736 0.617361,-0.61736 0.602662,0 0.617361,-0.0168 0.617361,-0.70556 v -0.70556 h 0.970139 c 0.917222,0 0.970139,0.0241 0.970139,0.44098 0,0.37026 -0.08306,0.44097 -0.517991,0.44097 -0.45547,0 -0.524663,0.0692 -0.573264,0.57326 -0.05029,0.52158 -0.114008,0.57815 -0.706683,0.62741 -0.61204,0.0509 -0.654682,0.0935 -0.705555,0.70556 -0.05104,0.61404 -0.09209,0.65455 -0.715605,0.70615 -0.625538,0.0518 -0.661458,0.0877 -0.661458,0.66146 v 0.60671 h -0.970139 c -0.852546,0 -0.970138,-0.0428 -0.970138,-0.35277 z m 3.880555,-0.26459 c 0,-0.60125 0.242408,-0.83954 0.403733,-0.39687 0.05247,0.14396 0.290049,0.0215 0.684555,-0.35278 0.33231,-0.3153 0.659953,-0.57326 0.728095,-0.57326 0.307261,0 0.07564,0.5384 -0.405942,0.94363 -0.293242,0.24675 -0.450772,0.49469 -0.352778,0.55526 0.367965,0.22741 0.154518,0.44138 -0.440302,0.44138 -0.587963,0 -0.617361,-0.0294 -0.617361,-0.61736 z m -4.056944,-5.46806 v -0.61736 h 8.995832 8.995833 v 0.61736 0.61737 H 64.917566 55.921734 Z M 141.47035,98.526177 V 83.709513 h 13.75833 13.75833 v -1.322917 -1.322917 h 0.70556 0.70556 v 1.940278 1.940278 H 156.5516 142.70507 v 13.580522 13.580523 l 10.27465,0.0455 10.27466,0.0455 0.0553,0.57326 0.0553,0.57328 H 152.4177 141.47041 Z m 19.22639,1.791213 c 0,-0.17901 0.54953,-0.833853 1.22118,-1.455213 1.69793,-1.57079 1.87066,-2.62906 0.42913,-2.62906 -0.46834,0 -0.64351,0.0965 -0.80046,0.44098 -0.11051,0.24253 -0.30725,0.44097 -0.43719,0.44097 -0.36178,0 -0.28297,-0.83525 0.1165,-1.23472 0.25732,-0.25732 0.58797,-0.35278 1.22192,-0.35278 0.72886,0 0.92815,0.075 1.23473,0.46476 0.70857,0.90081 0.37892,1.85553 -1.08196,3.13347 l -0.92766,0.81149 h 1.27579 c 1.1582,0 1.27579,0.0325 1.27579,0.352783 0,0.32926 -0.11759,0.35278 -1.76388,0.35278 -1.59695,0 -1.76389,-0.0308 -1.76389,-0.32546 z m 4.78903,-0.0873 c -0.77859,-0.828773 -0.95254,-2.524173 -0.38685,-3.770293 0.3629,-0.79939 0.75961,-1.00095 1.77368,-0.90116 0.79901,0.0786 1.26937,0.75866 1.37081,1.98188 0.1688,2.03553 -0.41133,3.102293 -1.68708,3.102293 -0.48782,0 -0.79355,-0.11786 -1.07056,-0.41272 z m 1.83455,-0.904533 c 0.65732,-1.5732 -0.10395,-3.65526 -1.13478,-3.10357 -0.44982,0.24073 -0.54991,0.56492 -0.54991,1.78112 0,1.3857 0.26066,1.93415 0.91925,1.93415 0.41507,0 0.55737,-0.11372 0.76544,-0.6117 z m 3.43058,-0.71122 c 0,-1.84366 -0.12408,-2.36482 -0.44097,-1.85208 -0.1662,0.26891 -0.97014,0.21356 -0.97014,-0.0668 0,-0.13375 0.2355,-0.34073 0.52332,-0.45995 0.28783,-0.11922 0.61504,-0.32729 0.72715,-0.46237 0.11211,-0.13509 0.35287,-0.24561 0.53502,-0.24561 0.30875,0 0.33118,0.17319 0.33118,2.55764 0,2.440053 -0.0162,2.557643 -0.35278,2.557643 -0.33233,0 -0.35278,-0.11759 -0.35278,-2.028473 z M 41.417629,94.52116 c -0.536479,-0.0832 -1.194506,-0.80507 -1.194506,-1.31044 0,-0.48093 0.503551,-0.40181 0.739578,0.11622 0.223717,0.491 0.798095,0.70815 1.444206,0.54598 0.893553,-0.22426 0.60531,-1.61484 -0.358341,-1.72875 -0.677619,-0.0801 -0.700614,-0.41461 -0.0415,-0.60364 1.119967,-0.3212 1.13196,-1.335798 0.01711,-1.447286 -0.423631,-0.04236 -0.610313,0.0458 -0.840345,0.396875 -0.37135,0.566752 -0.784322,0.586601 -0.784322,0.0377 0,-0.566018 0.544327,-1.011483 1.353324,-1.107529 1.334105,-0.158389 2.121699,0.795157 1.570079,1.90091 -0.257854,0.51688 -0.2562,0.58623 0.02129,0.89285 0.411097,0.45426 0.387842,1.4736 -0.0431,1.88909 -0.378217,0.36465 -1.138851,0.53346 -1.88348,0.41801 z m 3.987052,-0.0631 c -0.647307,-0.19235 -0.875611,-0.43179 -1.04136,-1.09219 -0.09988,-0.39797 -0.06318,-0.48389 0.206305,-0.48297 0.180292,6.2e-4 0.463017,0.23874 0.628279,0.52917 0.228077,0.40082 0.426922,0.52805 0.825248,0.52805 0.594664,0 1.079137,-0.39594 1.079137,-0.88194 0,-0.45703 -0.47348,-0.88195 -0.982738,-0.88195 -0.607544,0 -0.538337,-0.45632 0.103119,-0.67993 1.026513,-0.35785 0.881098,-1.348541 -0.197939,-1.348541 -0.451107,0 -0.640937,0.09756 -0.772255,0.396875 -0.197501,0.450172 -0.79602,0.540926 -0.79602,0.120696 0,-1.162414 1.885707,-1.717882 2.854745,-0.840916 0.394465,0.356987 0.416602,1.247436 0.04132,1.662116 -0.255728,0.28258 -0.248391,0.33876 0.08819,0.67535 0.478675,0.47868 0.482307,1.4117 0.0075,1.92137 -0.197807,0.21232 -0.455775,0.38712 -0.573264,0.38845 -0.117488,0.001 -0.372364,0.0356 -0.566392,0.0763 -0.194028,0.0406 -0.600764,1.6e-4 -0.903859,-0.0899 z M 35.89513,94.28244 c -0.06351,-0.10277 0.493128,-0.76844 1.236983,-1.47927 1.21256,-1.15871 1.346591,-1.35194 1.295695,-1.867924 -0.03122,-0.316536 -0.183389,-0.654745 -0.338147,-0.751575 -0.400591,-0.250643 -1.174227,-0.0105 -1.306251,0.40547 -0.1108,0.349102 -0.79362,0.507649 -0.79362,0.184279 0,-1.456523 2.610314,-1.90074 3.173898,-0.540126 0.327463,0.790565 0.08971,1.352036 -1.094928,2.585706 l -1.076554,1.12112 h 1.262681 c 1.00479,0 1.262681,0.054 1.262681,0.26458 0,0.21744 -0.312424,0.26459 -1.753479,0.26459 -1.044174,0 -1.800192,-0.0756 -1.868959,-0.18685 z m 100.23946,109.37217 13.80243,-5.9e-4 V 162.02619 120.39841 H 107.72105 65.505084 l -0.117296,23.15105 c -0.06451,12.73307 -0.117329,31.46557 -0.11737,41.62777 l -7.4e-5,18.47674 h 16.668749 16.668745 v -4.32153 -4.32153 h 8.995842 8.99584 v 4.29213 c 0,2.36068 0.0595,4.35499 0.13229,4.43182 0.0728,0.0768 1.3626,0.0903 2.86632,0.03 1.50371,-0.0603 8.94512,-0.10996 16.53646,-0.11028 z m -65.748968,-14.1999 v -0.61736 h 37.306258 37.30625 v 0.61736 0.61737 H 107.69188 70.385622 Z m 0,-1.4993 c 0,-0.49977 0.0392,-0.52917 0.705555,-0.52917 h 0.705556 v -0.88194 -0.88195 h 0.970139 0.970138 v -0.88194 -0.88195 h 0.881945 0.881944 v -0.97819 -0.9782 l 1.190625,0.0522 c 1.152906,0.0505 1.192393,0.0675 1.246438,0.53723 0.05368,0.4665 0.02498,0.48507 -0.749652,0.48507 h -0.805466 v 0.88194 0.88195 h -0.881945 -0.881944 v 0.97014 0.97014 H 73.73701 72.855066 v 0.88194 0.88195 h -1.234722 -1.234722 z m 4.938888,-0.25417 c 0,-0.85275 0.284864,-1.20052 0.614314,-0.74997 0.182787,0.24998 0.301082,0.18966 0.975301,-0.49732 0.604371,-0.61581 0.818576,-0.73924 1.008856,-0.58132 0.196926,0.16343 0.09323,0.35109 -0.561089,1.0154 -0.857931,0.87103 -0.956913,1.06738 -0.538076,1.06738 0.145521,0 0.264583,0.11906 0.264583,0.26458 0,0.19991 -0.215586,0.26459 -0.881944,0.26459 H 75.32451 Z m 61.23878,-0.31909 c 0.0469,-0.32993 0.18283,-0.40603 0.80602,-0.45112 l 0.74965,-0.0542 v -0.96 -0.95999 h 0.97014 0.97014 v -0.88195 -0.88194 h 0.88194 0.88195 v -0.88195 -0.88194 h 1.23472 c 1.19944,0 1.23472,0.0126 1.23472,0.44097 0,0.40504 -0.0647,0.44097 -0.79375,0.44097 h -0.79375 v 0.97014 0.97014 h -0.88194 -0.88195 v 0.88195 0.88194 h -0.88194 -0.88195 v 0.88195 0.88194 h -1.33518 c -1.28375,0 -1.33301,-0.0153 -1.27882,-0.39687 z m 5.08345,-0.39688 c 0,-0.82457 0.36695,-1.11811 0.60905,-0.48721 0.0983,0.25623 0.24536,0.1694 0.896,-0.52917 0.42811,-0.45964 0.85523,-0.8357 0.94917,-0.8357 0.43408,0 0.28896,0.35689 -0.4334,1.06584 -0.83404,0.81855 -0.94932,1.05082 -0.52152,1.05082 0.14552,0 0.26459,0.11907 0.26459,0.26459 0,0.1999 -0.21559,0.26458 -0.88195,0.26458 h -0.88194 z m -71.261118,-6.70278 v -0.61736 h 8.643055 8.643054 v 0.61736 0.61736 h -8.643054 -8.643055 z m 57.150008,0 v -0.61736 h 8.73125 8.73125 v 0.61736 0.61736 h -8.73125 -8.73125 z M 35.460624,117.31161 v -2.02847 h 2.116666 2.116667 v 2.04074 c 0,2.01543 0.0049,2.04004 0.396875,1.98437 0.393261,-0.0559 0.396875,-0.0829 0.396875,-2.96678 v -2.91042 l -7.981597,-0.0459 -7.9816,-0.0459 v 3.00041 3.00041 h 5.468061 5.468053 z m 1.251406,-2.68993 c 0.129948,-0.16978 0.245987,-0.32901 0.257865,-0.35386 0.01188,-0.0249 0.165702,0.11406 0.341833,0.30868 0.314375,0.34738 0.309655,0.35386 -0.257864,0.35386 -0.522989,0 -0.555578,-0.0294 -0.341834,-0.30868 z m 1.159242,0.0147 c -0.222476,-0.22248 -0.116964,-0.41158 0.229649,-0.41158 0.236191,0 0.314772,0.0846 0.245712,0.26459 -0.10859,0.28298 -0.284865,0.33748 -0.475361,0.14699 z m 153.958098,1.70509 v -2.91042 l -7.27604,-0.046 -7.27604,-0.0461 v 3.00253 3.00252 l 7.27604,-0.0461 7.27604,-0.046 z m -152.488191,0.88194 v -1.5875 H 37.57729 35.813401 v 1.5875 1.5875 h 1.763889 1.763889 z m -2.822222,0.79375 c 0,-0.33954 -0.06837,-0.61736 -0.151929,-0.61736 -0.08356,0 -0.113995,-0.19843 -0.06763,-0.44097 0.04636,-0.24253 0.154419,-0.44097 0.240123,-0.44097 0.0857,0 0.155826,-0.15875 0.155826,-0.35278 0,-0.54771 0.26181,-0.41681 0.529166,0.26458 0.133229,0.33955 0.297536,0.61737 0.365128,0.61737 0.111525,0 0.345816,-0.55287 0.404894,-0.95544 0.01305,-0.0889 0.12836,-0.19657 0.256243,-0.2392 0.127883,-0.0426 0.214373,0.0301 0.192199,0.16169 -0.02217,0.13156 0.05179,0.46264 0.16436,0.73575 0.251346,0.60977 0.261797,0.88248 0.02829,0.73817 -0.104973,-0.0649 -0.176389,0.14516 -0.176389,0.51875 0,0.44043 -0.07896,0.62778 -0.264584,0.62778 -0.185624,0 -0.264583,-0.18735 -0.264583,-0.62778 0,-0.41568 -0.06625,-0.58682 -0.19611,-0.50656 -0.10786,0.0667 -0.265395,0.0118 -0.350077,-0.12189 -0.10184,-0.16078 -0.154881,0.0107 -0.156668,0.50657 -0.0023,0.63116 -0.05846,0.74966 -0.355478,0.74966 -0.285582,0 -0.352778,-0.1176 -0.352778,-0.61737 z m 4.017012,-8.95174 -0.04826,-3.04271 h -7.9375 -7.937499 l -0.0483,3.04271 -0.0483,3.04271 h 8.034024 8.034025 z"
       id="path8" /></g><g inkscape:groupmode="layer" id="Clickable_Rooms" inkscape:label="Clickable_Rooms">
    <rect style="fill:none;stroke:#ffffff;stroke-width:0;stroke-dasharray:none;stroke-opacity:1" id="R233" width="30.848879" height="26.338003" x="24.497267" y="78.433601" />
    <rect style="fill:none;stroke:#ffffff;stroke-width:0;stroke-dasharray:none;stroke-opacity:1" id="R201" width="49.306438" height="27.273438" x="142.63712" y="84.904205" ry="0" />
    <rect style="fill:none;stroke:#ffffff;stroke-width:0;stroke-dasharray:none;stroke-opacity:1" id="R202" width="14.915884" height="9.5249939" x="177.23776" y="136.78958" />
    <rect style="display:inline;fill:none;stroke:#ffffff;stroke-width:0;stroke-dasharray:none;stroke-opacity:1" id="R204" width="14.643635" height="10.059592" x="177.27084" y="147.55482" />
    <rect style="display:inline;fill:none;stroke:#ffffff;stroke-width:0;stroke-dasharray:none;stroke-opacity:1" id="R206" width="14.639502" height="11.146857" x="177.27956" y="158.84108" />
    <rect style="display:inline;fill:none;stroke:#ffffff;stroke-width:0;stroke-dasharray:none;stroke-opacity:1" id="R207" width="15.494598" height="11.162908" x="151.37057" y="158.90224" />
    <rect style="display:inline;fill:none;stroke:#ffffff;stroke-width:0;stroke-dasharray:none;stroke-opacity:1" id="R205" width="15.593826" height="10.363487" x="151.34166" y="147.27936" />
    <rect style="display:inline;fill:none;stroke:#ffffff;stroke-width:0;stroke-dasharray:none;stroke-opacity:1" id="R203" width="15.523651" height="9.6796207" x="151.34167" y="136.65729" />
    <rect style="display:inline;fill:none;stroke:#ffffff;stroke-width:0;stroke-dasharray:none;stroke-opacity:1" id="R231" width="13.208547" height="9.3158178" x="51.020962" y="136.65762" />
    <rect style="display:inline;fill:none;stroke:#ffffff;stroke-width:0;stroke-dasharray:none;stroke-opacity:1" id="R229" width="13.241617" height="10.539514" x="50.932297" y="147.14139" />
    <rect style="display:inline;fill:none;stroke:#ffffff;stroke-width:0;stroke-dasharray:none;stroke-opacity:1" id="R227" width="13.142401" height="11.300201" x="50.932293" y="158.81615" />
    <rect style="display:inline;fill:none;stroke:#ffffff;stroke-width:0;stroke-dasharray:none;stroke-opacity:1" id="R208" width="14.660575" height="8.4710407" x="177.27806" y="171.2021" />
    <rect style="display:inline;fill:none;stroke:#ffffff;stroke-width:0;stroke-dasharray:none;stroke-opacity:1" id="R209" width="15.603148" height="8.4875765" x="151.32513" y="171.16888" />
    <rect style="display:inline;fill:none;stroke:#ffffff;stroke-width:0;stroke-dasharray:none;stroke-opacity:1" id="R210" width="14.69364" height="10.786148" x="177.27084" y="180.87579" />
    <rect style="display:inline;fill:none;stroke:#ffffff;stroke-width:0;stroke-dasharray:none;stroke-opacity:1" id="R211" width="15.619676" height="10.786148" x="151.34166" y="180.84271" />
    <rect style="display:inline;fill:none;stroke:#ffffff;stroke-width:0;stroke-dasharray:none;stroke-opacity:1" id="R212" width="14.69364" height="10.786148" x="177.27083" y="192.91432" />
    <rect style="display:inline;fill:none;stroke:#ffffff;stroke-width:0;stroke-dasharray:none;stroke-opacity:1" id="R213" width="15.619676" height="10.91844" x="151.27553" y="192.81511" />
    <rect style="fill:none;stroke:#ffffff;stroke-width:0;stroke-dasharray:none;stroke-opacity:1" id="R225" width="13.129946" height="8.2682343" x="50.965366" y="171.38385" />
    <rect style="fill:none;stroke:#ffffff;stroke-width:0;stroke-dasharray:none;stroke-opacity:1" id="R223" width="13.196094" height="10.814843" x="50.89922" y="180.90886" />
    <rect style="fill:none;stroke:#ffffff;stroke-width:0;stroke-dasharray:none;stroke-opacity:1" id="R221" width="13.063803" height="10.616407" x="50.998436" y="193.04662" />
    <rect style="fill:none;stroke:#ffffff;stroke-width:0;stroke-dasharray:none;stroke-opacity:1" id="R222" width="16.040365" height="10.880989" x="24.540104" y="192.91432" />
    <rect style="fill:none;stroke:#ffffff;stroke-width:0;stroke-dasharray:none;stroke-opacity:1" id="R224" width="16.139584" height="10.781771" x="24.473959" y="180.90886" />
    <rect style="fill:none;stroke:#ffffff;stroke-width:0;stroke-dasharray:none;stroke-opacity:1" id="R226" width="16.073437" height="8.5658855" x="24.490494" y="171.11926" />
    <rect style="fill:none;stroke:#ffffff;stroke-width:0;stroke-dasharray:none;stroke-opacity:1" id="R228" width="16.056898" height="11.145573" x="24.523567" y="158.84921" />
    <rect style="fill:none;stroke:#ffffff;stroke-width:0;stroke-dasharray:none;stroke-opacity:1" id="R230" width="16.10651" height="10.417969" x="24.50703" y="147.17448" />
    <rect style="fill:none;stroke:#ffffff;stroke-width:0;stroke-dasharray:none;stroke-opacity:1" id="R232" width="16.040365" height="9.3265619" x="24.50703" y="136.65729" />
    <rect style="fill:none;stroke:#ffffff;stroke-width:0;stroke-dasharray:none;stroke-opacity:1" id="R220" width="16.139584" height="31.088537" x="24.540104" y="215.13931" />
    <rect style="fill:none;stroke:#ffffff;stroke-width:0;stroke-dasharray:none;stroke-opacity:1" id="R219" width="18.785416" height="31.088541" x="41.804165" y="215.10625" />
    <rect style="fill:none;stroke:#ffffff;stroke-width:0;stroke-dasharray:none;stroke-opacity:1" id="R218" width="40.811981" height="41.208866" x="61.780205" y="204.98593" />
    <rect style="fill:none;stroke:#ffffff;stroke-width:0;stroke-dasharray:none;stroke-opacity:1" id="R217" width="15.610416" height="31.154688" x="125.94167" y="215.0401" />
    <rect style="fill:none;stroke:#ffffff;stroke-width:0;stroke-dasharray:none;stroke-opacity:1" id="R216" width="16.734896" height="31.154688" x="142.61041" y="215.10625" />
    <rect style="fill:none;stroke:#ffffff;stroke-width:0;stroke-dasharray:none;stroke-opacity:1" id="R215" width="15.411979" height="31.022396" x="160.46979" y="215.10625" />
    <rect style="fill:none;stroke:#ffffff;stroke-width:0;stroke-dasharray:none;stroke-opacity:1" id="R214" width="14.816667" height="31.28698" x="177.20468" y="215.10625" />
  </g>
  <g inkscape:groupmode="layer" id="layer6" inkscape:label="Layer 3" />
</svg>